<svg xmlns="http://www.w3.org/2000/svg" width="808" height="216" fill="none" viewBox="0 0 808 216">
  <path fill="#fff" d="M201.604 3.655c-.041-1.462-.66-3.56 1.444-3.655.389 1.462.101 3.048-1.444 3.655ZM138.848 6.45c1.592-1.404 3.985-1.775 5.901-.843 1.215.595 2.553.736 3.85 1.06.678.79.601 2.14-.354 2.671-2.694 2.01-4.74 4.705-7.228 6.94-1.556 1.797-2.941 3.749-4.881 5.175-1.25 1.934-1.963 4.174-3.319 6.055.554 1.179 2.016 2.075 1.822 3.502-1.162 1.42-3.013 2.098-4.045 3.649-1.674 2.759-5.235 3.083-7.793 4.598-1.297 1.816-3.255 2.86-5.253 3.726-.112.23-.348.69-.466.92-2.971 1.032-5.878 2.376-8.342 4.362-3.006.961-6.237 3.001-6.396 6.515 1.65.26 3.395.548 4.858-.49-.006-.33-.012-.996-.018-1.332l1.556.047c1.533-1.132 3.219-1.998 4.911-2.865 1.144-.578 1.627-1.857 2.594-2.635 1.627-.401 3.508-.354 4.133-2.264.359.03 1.079.083 1.444.106 3.655-2.328 7.882-3.65 11.349-6.296 2.393-1.262 4.126-3.46 6.543-4.687 1.875-1.138 4.11-1.261 6.161-1.892.778.566 1.557 1.137 2.341 1.703-.413.678-.826 1.35-1.233 2.029.808.46 1.61.925 2.406 1.414-.637.75-1.486 1.209-2.358 1.61-.472-.72-.926-1.439-1.415-2.14-.773.849-1.645 1.597-2.423 2.44 1.527.36 3.443.325 3.726 2.288-2.164.524-3.243 2.564-5.2 3.396-2.795 1.414-5.312 3.29-7.959 4.946-1.998 1.28-4.38 1.827-6.314 3.225-.937.672-1.987 1.155-3.03 1.639.136.277.407.825.542 1.102 2.359-1.498 5.312-1.486 7.776-.242 1.946 1.893.525 4.87-.725 6.762-2.464 3.23-5.63 5.978-9.238 7.87-2.511 1.35-4.846 3.013-7.469 4.157-.826 1.945-2.889 2.246-4.717 2.617-1.444.896-2.523 2.317-4.138 2.954-1.94.636-2.906 2.547-4.015 4.103-.701.855.419 1.574.896 2.175 1.38-.79 3.025-1.202 4.033-2.529 1.055-.389 1.969-1.173 3.083-1.385.342.26 1.032.778 1.374 1.038 3.236-.72 6.561-.95 9.78-1.74 1.173.378 2.028 1.368 3.119 1.922.884.266 1.833.118 2.741.266.065.86.065 1.733.083 2.605-2.807-.17-5.006 1.822-7.393 2.983-1.798.82-2.011 2.913-2.382 4.605.967.66 1.987 1.338 2.399 2.5-1.243.4-2.499.766-3.743 1.143.613.295 1.232.59 1.857.878 1.315 1.675 3.071 2.93 5.029 3.756 3.124 1.356 6.007 3.201 8.725 5.247l.872-1.74c1.144 1.109 1.35 2.842 2.571 3.88 1.356 1.096 2.735 2.517 4.645 2.269-.171.525-.336 1.061-.501 1.592a26.692 26.692 0 0 0 5.725 1.987c4.533 3.401 9.179 6.679 13.812 9.957 1.557 1.663 3.485 2.842 5.312 4.15 2.594 2.812 6.308 5.289 10.305 4.446 1.58-.307 2.37 1.296 3.455 2.081.943-.549 1.733-1.321 2.694-1.84 1.114-.124 2.164.478 3.278.531.808-.879 1.527-1.84 2.287-2.759 1.344-1.415.342-3.561 1.179-5.194.649-1.627 2.942-2.134 3.036-4.032.248-1.504.449-3.09-.282-4.499-1.268-1.957 2.098-2.953 1.538-4.875-.471-1.403-.23-3.125-1.179-4.316-1.945-1.521-2.794-3.908-4.103-5.924-1.468-2.235-.713-5.094-1.845-7.428-2.759-3.508-5.566-7.075-7.369-11.19-.667-1.574-2.152-2.954-1.793-4.799.442-2.205-.902-4.303-.395-6.496.46-1.586-.695-3.125-.153-4.717.537-1.639-.283-3.2-.625-4.78.525-1.758 1.851-3.32 1.515-5.271-.241-4.575 1.987-8.696 3.361-12.923.536-1.592-.555-3.077-.649-4.634.472-1.196 2.087-3.06.136-3.826-.896.277-1.716.749-2.553 1.15.1-1.698 1.721-1.975 3.042-2.417.92-2.647 2.205-5.147 3.225-7.753.424-.094 1.267-.277 1.692-.371-.266-1.627.902-2.37 2.287-2.777-.224-2.329 1.568-4.25 3.838-4.474-.672-3.378 4.044-2.972 4.669-5.802.472-1.904 1.698-3.378 2.995-4.78.861-2.082 1.969-4.11 3.844-5.46.701 1.173 1.55 2.246 2.718 2.983-.342 2.329-1.911 4.127-2.895 6.179-.843 1.509 1.026 2.759.743 4.286-.018 1.167-1.026 2.004-1.421 3.053.967.142 1.94.112 2.918-.076-.053.707-.106 1.415-.171 2.116 2.04 2.064 1.403 5.595-.583 7.47.041 2.328-2.028 3.779-3.514 5.258-3.16 1.504-6.939 2.37-9.344 5.07.059 1.798 1.792.596 2.835.578.484.908-.542 1.486-.96 2.134-2.029 2.694-6.615 2.512-7.647 6.084-1.067 3.101-2.187 6.22-2.847 9.433.129 3.142-.696 6.213-.696 9.35-.242.601-1.415 1.179-.743 1.863 1.297 1.816 1.71 4.026 2.512 6.072.359.873-.378 1.74-.501 2.594.53.195 1.067.395 1.603.59.873 1.686 2.158 3.142 2.789 4.952.542 1.39 1.232 3.06 2.847 3.443 1.433.56 3.608.241 4.31 1.95.123 1.186-.107 2.37-.018 3.556.265 1.85 2.629 2.299 3.048 4.097 1.562 4.822 4.227 9.315 4.864 14.402.406 1.751 1.532 3.243 1.886 5.017.312 1.952 1.987 3.667 1.38 5.719-.59.519-1.274.925-1.828 1.486-.619 1.686.153 3.596-.625 5.258-.472 1.215-1.627 1.922-2.6 2.706.319.643.607 1.291.861 1.963-.702.537-1.492.932-2.229 1.409-.489 2.689-2.499 4.728-3.142 7.369-.707 2.636-1.202 5.495-3.101 7.588-1.633 1.633-3.171 3.844-5.748 3.773-4.368 1.603-8.065 5.618-13.052 5.188-3.354-.478-4.156 3.767-6.945 4.757.431 4.522-1.833 9.457.655 13.654-.678 1.674-1.415 3.39-.49 5.164-.843 2.27-.542 4.693-.56 7.057.112 1.851-1.367 3.237-1.733 4.97-.931 3.225.077 6.52.141 9.78.077 1.468 1.18 2.653 1.25 4.115-.283 1.173-.967 2.246-.996 3.484-.189.997.041 2.199-.766 2.972-1.964-.042-3.874-.678-5.849-.507-2.045-.195-4.209.719-6.125-.295.855-3.449.478-7.027 1.114-10.506-.801-2.399-1.22-4.964-.395-7.422-.654-1.179-1.839-2.228-1.609-3.702.206-.979.619-1.898.837-2.871-.283-1.48-1.415-2.665-1.58-4.174-.088-1.061.596-1.951 1.014-2.865-1.008-2.818-1.25-6.503.896-8.855 1.221-1.439.413-3.408.784-5.082.637-1.645-1.839-2.676-1.061-4.315.713-2.164.932-4.675.13-6.821-2.258-1.026-4.781-.997-7.045-.006-1.179.554-1.822 1.928-1.669 3.195.46 4.893.667 9.804.991 14.703-.112 1.674.973 3.095 1.061 4.734 0 4.74.495 9.48.118 14.22-.348 1.721.23 3.431.271 5.152.254 2.647-2.629 4.628-1.273 7.299-1.333 1.185-2.747 2.877-4.74 2.051-1.049.649-2.688 1.745-3.632.331-2.623-3.261-1.22-7.67-2.847-11.249.424-1.627-.1-3.012-1.356-4.056-.088-2.046-.324-4.079-.949-6.037-.861-2.688-.413-5.524.112-8.224-1.439-2.087-1.981-4.657-1.716-7.163.307-2.529-.465-5.034-.253-7.575.312-2.217-1.002-4.133-1.763-6.108-1.179.248-2.323-.218-3.49-.23-1.568.272-3.16.973-4.758.454-1.91-.589-3.773-1.521-5.83-1.314-2.6.176-5.153-.366-7.717-.631-8.631.519-17.669-1.674-25.987 1.609-1.438.49-2.535-.754-2.641-2.087-4.84 1.103-9.545-1.261-14.361-.884-1.02-.177-2.005-.495-2.995-.79-.395-2.046-.507-4.203.548-6.078-.135-1.568.036-3.136.018-4.705-.047-1.821-1.285-3.26-2.47-4.51-.395 1.386-.454 2.972-1.48 4.08-1.391 1.686-3.838 2.458-4.58 4.663-.584 2.105-1.05 4.316-2.353 6.126-.89 1.426-2.5 2.564-2.5 4.397-.141 2.706-.683 5.583-2.617 7.617-.743.944-2.093 1.669-1.892 3.06.23 2.287-1.003 4.416-2.866 5.671-.3 1.48-1.043 2.807-1.721 4.139a35.82 35.82 0 0 0-2.105 1.02c.79 1.892.46 4.103-1.096 5.512-1.297-.637-2.665-1.232-3.667-2.311-.92-1.273-2.63-.967-3.938-1.515-.053-1.108.607-2.329-.13-3.313-1.226-1.728.466-3.809-.436-5.66.967-2.511.784-5.318 1.992-7.746.85-1.763 1.327-3.667 1.58-5.601.59-.206 1.185-.419 1.775-.631-.177-1.185-.961-2.441-.354-3.614.566-.53 1.244-.919 1.88-1.35-.783-1.745-.306-3.466.956-4.81.49-2.518 1.745-4.764 2.947-6.998 1.398-2.134 3.603-3.573 5.006-5.701 2.765-3.985 4.168-8.696 6.461-12.94 1.126-1.999.802-4.363.701-6.55.036-1.315-1.42-1.892-1.839-3.001-.973-5.724-2.057-11.431-2.818-17.185-.247-2.087-.955-4.08-1.992-5.901-.985-1.604-.36-3.549-.743-5.294-1.02-5.182-1.816-10.417-3.142-15.54-.614-1.975-1.032-4.21-2.612-5.683-1.456-1.398-3.602-1.174-5.412-1.704-1.733-.513-3.472-1.09-5.046-1.981-1.928-1.639-3.42-4.139-6.096-4.61-2.606-.224-4.48 1.922-6.692 2.918-2.022.814-2.877 2.971-3.92 4.716-.996 1.645-1.238 3.561-1.385 5.436.035 1.185-1.704 1.792-2.382.802-2.022-2.382-3-5.442-3.702-8.437C.73 58.152-.017 53.813.083 49.438c-.006-1.85 1.42-3.39 1.25-5.276.076-1.197-.466-2.759.742-3.56 3.284-2.506 6.721-5.466 11.084-5.56 7.369-1.073 14.638.914 21.96 1.332 2.942.2 6.02 1.233 8.755-.347 1.414.536 2.523 1.68 4.032 2.022.177.26.536.766.713 1.02 2.636-1.35 5.477-.036 8.248-.425 2.37-1.792 5.477-2.328 8.389-2.099.902-.188 1.786-.625 2.724-.353 2.11.465 4.038-1.126 6.184-.584 2.77-.643 5.972-.872 8.371.955-.241 1.285-.336 2.6-.613 3.885-1.969 1.232-4.292 2.27-5.33 4.51-1.296 2.252-.79 4.893-.76 7.352.018 1.839-1.197 3.277-1.969 4.834.136 1.114.867 2.01 1.403 2.953-.583.672-1.586 1.415-.365 2.046.377-.088 1.12-.277 1.497-.365 1.227 4.704 1.58 9.603 3.172 14.225 1.993 1.887 4.486 3.195 6.396 5.212l1.958-.885c-.537-1.704-1.286-3.325-1.834-5.023-.242-1.568.425-3.118.254-4.692-.254-2.753-.95-5.518-.466-8.29.224-1.426 1.102-2.634 1.474-4.014.118-1.58-.153-3.225.407-4.752.701-2.033 2.045-3.743 3.089-5.6 1.144-2.064 3.107-3.508 4.333-5.512.82-1.327-.295-3.249.967-4.387 1.067-.725 2.21-1.355 3.077-2.334 1.639-.572 2.877-1.78 3.926-3.113 1.362-1.827 3.72-2.193 5.701-3.012 1.492-1.87 3.372-3.408 4.663-5.442 1.097-1.745 3.149-2.4 5.094-2.611.466-.867.861-1.863 1.81-2.317 2.505-1.58 4.964-3.231 7.322-5.023 3.596-2.742 7.605-4.887 11.107-7.758Zm59.03 20.062c-1.32.878-2.641 2.222-2.953 3.826 2.582.884 4.657-1.515 6.025-3.367-.696-1.037-2.07-.913-3.072-.46ZM44.852 52.628c-.642 2.523.472 5.135.366 7.7 1.002 1.438 1.102 3.654 3.154 4.032.619.743 1.255 1.597 2.281 1.762 3.101.584 6.338.531 9.427-.058 1.35-.29 1.238-2.205 2.529-2.56.82-.441 1.998-.73 2.193-1.791.16-1.775.43-3.538.937-5.253-.218-2.506-1.173-4.929-2.27-7.18-1.461-2.712-4.851-3.508-7.693-3.072-4.41.389-7.976 3.384-10.924 6.42Zm72.997 5.33c-2.706.524-3.762 3.354-6.037 4.556-2.347 2.046-4.893 3.95-6.91 6.32 1.103 2.323 4.121.33 5.636-.572 1.297-2.305 2.553-4.822 4.693-6.455 3.142-1.427 5.719-3.773 8.784-5.347-.012-.124-.041-.366-.053-.483-2.158-.336-3.95 1.721-6.113 1.98Zm-26.535 4.226c-3.538 2.394-2.188 8.419 1.532 9.834 2.5.46 5.424.183 7.234-1.81 1.161-.884.483-2.447.884-3.643.59-1.633-.059-3.886-1.874-4.375-2.447-1.261-5.289-.837-7.776-.006Zm-25.02 10.01c-1.64 4.516-3.791 8.855-5.017 13.519l-.92-1.716c-2.205-.047-3.237-2.063-4.917-3.048-2.163-.26-4.421.171-6.544-.495-.996-.436-1.774-1.238-2.717-1.763a2.652 2.652 0 0 0-1.804 1.35c.707 2.217.011 4.605.89 6.792 1.344 3.596 2.64 7.204 4.02 10.788.602 1.604 2.353 2.5 2.718 4.216.46.807.366 2.906 1.78 2.257.313-1.574-.671-2.941-1.013-4.41 1.067-.495 1.904.785 2.888.991-.625-2.07-1.32-4.115-1.957-6.184-.124-.82.354-1.65.047-2.447-.878-2.629-1.367-5.43-2.788-7.846-.448-.743-1.238-1.368-1.173-2.329 1.65.006 2.5 1.828 3.779 2.665 1.81 1.308 2.658 3.354 3.36 5.382 1.197.018 2.558-.86 3.614 0 1.568 1.18.967 4.133 2.953 4.74.643-.967-1.155-2.358.024-3.083.619-.484 1.285-.908 1.84-1.468-.172-2.27.147-4.51.683-6.715 1.209 1.497 2.423 2.989 3.431 4.634 1.91 1.214 3.602 2.706 5.188 4.315 1.574 1.65 3.79.06 5.642-.088 1.055-2.836-3.054-3.661-3.525-6.114-.29-.1-.873-.289-1.162-.383-.925-1.527-2.588-2.27-3.826-3.467-1.238-1.868-2.54-3.814-2.836-6.095-1.09-1.197-1.662-2.736-2.658-3.997Zm17.58 25.12c-1.875.166-1.02 2.53-.743 3.715.908 2.158-.336 4.48.4 6.644.637 1.014 1.551 1.816 2.282 2.771-.684.513-2.21.318-2.205 1.45 2.229 1.863 5.247 2.205 8.036 2.376 1.468.242 2.558-.843 3.678-1.562 3.166-.195 5.383-2.824 7.417-4.976 1.173-1.745 2.983-3.573 2.564-5.842-.135-1.498.189-3.213-.884-4.445-1.863-.796-3.903-1.062-5.778-1.834-1.703-.66-3.319-1.822-5.229-1.698-3.537.03-6.06 3.09-9.538 3.402Zm-16.967 8.355c-3.997 1.261-7.941 2.67-11.968 3.82-.023 1.456-.601 2.771-1.09 4.109.442 1.114.937 2.24 1.691 3.183 1.073.826 2.477-.342 3.638.218 1.456.49 3.007.773 4.54.507-.213-1.297-.349-2.823-1.551-3.625-1.41-.124-2.806.23-4.21.242a18.335 18.335 0 0 1-.058-1.97c3.277.796 5.795-2.175 8.99-2.187 1.327.059 2.624-.259 3.944-.283.318 1.698.307 3.437.354 5.159-.772 1.014-2.087.707-3.178.678-.283.831-1.15 1.851-.336 2.67 2.004 1.91 5.035 1.15 7.51 1.663 1.469.342 3.202.536 4.446-.519.843-.867.778-2.175.943-3.29-1.745-.283-3.496-.489-5.258-.483 1.532-2.783-.095-5.884.495-8.843.86.047 1.721.1 2.582.159.548-1.444.76-2.995.843-4.528-4.534-.831-8.083 2.577-12.327 3.32Zm41.592 4.427c-.366 1.279-1.852 1.515-2.824 2.181 1.208 1.085 1.008 2.718 1.532 4.086 1.969 1.438 5.006.448 6.255-1.509 1.009-1.492-.524-3.591 1.044-4.858 1.615-1.963 4.268-.938 6.278-.319-.79-3.148-4.35-4.793-7.292-5.323-2.075 1.403-4.156 3.289-4.993 5.742Zm17.992 2.511c-2.517.619-4.805 2.27-6.037 4.569-.471.879-1.261 1.492-1.992 2.134 1.025-1.951-1.781-3.301-3.143-2.016-1.727 1.303-3.053 3.054-4.739 4.416 3.23-.124 6.196 1.332 9.356 1.586 1.839-1.946 3.584-4.027 5.777-5.595 1.214-.772 2.818.136 3.991-.784.731-.59 2.223-1.232 1.769-2.364-.861-1.804-3.178-2.305-4.982-1.946Zm-26.676 3.196c-2.43 1.532-5.27 2.146-7.806 3.466-2.57.82-5.158 1.999-7.911 1.739-1.627 1.557.595 3.166 2.18 3.178 2.996.088 5.873-.943 8.838-1.215 1.586-1.155 3.396-1.792 5.288-2.216 1.126-1.674 1.798-3.626 2.258-5.577-.973.082-2.004.071-2.847.625Zm28.51 8.065c-1.468 1.173-3.821.412-4.976 2.069-.66.784-1.433 2.099-.478 2.983 1.934 2.847 6.762 2.564 8.319-.484 2.582-2.428 5.046-5.288 5.948-8.795-.743-1.734-2.47-2.724-3.844-3.909-2.169 2.417-2.199 6.202-4.969 8.136Zm-68.994-1.327c-1.533.82-1.155 2.765-1.503 4.18-.26 1.621-1.197 3.431-.106 4.946.772 1.103 1.474 2.27 1.591 3.649.307.236.914.702 1.215.938-.053.418-.171 1.261-.224 1.68l1.203-.613c1.202 1.933 2.27 4.233 4.74 4.763.276-.418.83-1.267 1.114-1.692.566.383 1.138.755 1.715 1.132 1.097-1.368 2.895-2.11 3.596-3.779a31.936 31.936 0 0 0 2.194-6.974c-.113-1.592-1.339-2.765-2.182-4.021-3.956 1.716-3.832 6.609-5.819 9.869-1.414-1.509-3.307-2.564-4.498-4.268-.212-2.464-.949-4.987-.318-7.446.672-1.521-1.262-3.761-2.718-2.364Zm78.627 5.011c-2.064.572-3.455 2.305-4.764 3.879-.035.849.973 1.091 1.468 1.616-.348.972-1.786 2.187-.66 3.106.925 1.014 2.529.319 3.637-.058 1.48-.572.649-2.353 1.291-3.443.678-1.533 2.441-2.193 3.125-3.714.536-1.309 1.438-2.4 2.287-3.508-.082-1.674-2.11-.767-3.189-.92-1.792-.141-2.73 1.58-3.195 3.042Zm-27.567.932c1.279 1.998 3.773 2.765 6.025 2.729 1.244.177 1.598-1.727.495-2.14-1.857-.872-3.891-1.285-5.819-1.945-.176.336-.524 1.02-.701 1.356Zm38.467 6.75c2.235-.354 3.449-2.83 3.148-4.929-1.362-.695-2.67-1.485-4.038-2.175-.719 2.287-2.382 6.149.89 7.104Zm-66.193-2.865c-1.262 3.283.153 6.779-.254 10.151a9.441 9.441 0 0 0 1.828 6.839c.802 1.079 2.459 1.014 3.52.372-.177-4.563-.29-9.138-.118-13.701 1.668-.549 3.277-1.533 5.081-1.456.142 3.36 1.404 6.738.525 10.092-.4 1.521-1.462 3.178-.46 4.711 1.893-.047 3.88.277 5.678-.46 2.358-.778 4.91.206 7.28-.413 1.421-1.438 1.48-3.726 2.63-5.388.778-3.531.206-7.251 0-10.836.012-.69.501-1.574-.277-2.004-1.415-.366-2.871-.543-4.292-.879-.006 1.038-.672 2.305.153 3.178.625.867 1.928 1.68 1.327 2.924-.961 2.612-.991 5.489-1.993 8.059-1.156.861-3.49 1.315-4.475.142.219-3.98-1.762-7.989-.265-11.88.248-.849.702-2.234-.466-2.623-3.136.407-6.202 1.55-9.409 1.362-1.096.094-1.804-.908-2.629-1.439-1.303.855-2.842 1.681-3.384 3.249Zm74.706 1.102c-1.91 1.922-3.626 4.109-4.516 6.703-.283 1.22-1.886 1.297-2.588.395-2.158-2.11-4.186-4.799-7.334-5.388-2.11-.095-3.224 2.04-4.598 3.283 3.514 4.534 9.503 5.943 13.318 10.123.807.908 2.452 1.073 3.112-.095 1.062-1.715 3.826-3.053 2.488-5.376.708-1.291 1.492-2.57 1.834-4.021.318-1.255 1.356-2.258 1.367-3.608.378-1.603-1.798-3.118-3.083-2.016Zm-46.438 9.668c.289 1.999-.884 4.729 1.203 6.031 1.662 1.468 3.295-.678 4.156-1.992 1.71-2.217.277-5.035.301-7.529.106-1.91-.932-3.566-2.517-4.551-2.217 2.04-3.408 5.029-3.143 8.041Zm19.479-6.084c-2.258 3.39-6.043 5.619-7.611 9.51-.496 1.468-1.333 2.776-1.952 4.191.266 1.162.336 2.765 1.669 3.237 1.155.584 2.806.359 3.166-1.067 1.126-3.478 3.13-6.526 4.722-9.792 1.58 1.497 3.448 3 4.162 5.129-1.704.843-3.638 1.008-5.4 1.668a19.991 19.991 0 0 0-.472 2.122c2.818 1.315 6.267.49 8.837 2.358 1.138-.524 2.347-.831 3.555-1.143-.383-1.804-.778-3.626-.548-5.477.354-1.02-1.038-1.091-1.574-1.545-.49-.966-.814-2.057-1.621-2.812-2.258-2.181-4.163-4.799-6.933-6.379Zm33.037 5.371a67.032 67.032 0 0 0-2.293 7.24c-.542 1.161.466 2.122 1.073 2.989 1.055-.79 2.181-1.486 3.26-2.252 1.244-1.02 1.226-2.783 1.698-4.192.749-2.116 1.409-4.392 1.014-6.656-2.258-1.25-3.467 1.556-4.752 2.871Zm8.566.979c-2.977 2.169-2.317 6.52-2.747 9.774 1.073 1.857 3.844.413 4.545-1.114.637-2.529.997-5.141 1.303-7.729-.141-1.515-2.069-1.25-3.101-.931Zm-100.486 3.154c.371.006 1.12.029 1.491.041a5.944 5.944 0 0 0 3.69 2.482c1.103-2.417-1.62-3.637-2.487-5.548-1.309.584-2.005 1.834-2.694 3.025Z"></path>
  <path fill="#fff" d="M202.83 18.122c.006-1.078 1.922-1.432 1.61-.053.135 1.215-1.834 1.368-1.61.053ZM453.348 44.61c1.757-2.73 5.099-1.102 7.234.177 7.339 4.675 13.612 11.16 17.715 18.854.843 2.21 1.727 4.392 2.771 6.514 3.077 1.538 4.138 4.94 4.746 8.076.259 2.618 1.202 5.124 1.014 7.788.742 4.575.46 9.209.082 13.801 1.474 7.216-1.261 14.326-1.267 21.542.07 4.675-.92 9.433.165 14.013-.896 5.171-2.394 10.217-4.127 15.169-.371 1.279-1.963 1.651-2.305 2.983-2.17 1.692-3.455 4.127-4.628 6.556-1.845.395-2.016 2.128-1.898 3.72-2.052 2.776-4.817 4.964-7.14 7.516-1.697.896-3.725 1.185-5.612 1.409-3.366-.619-6.897-.672-10.069-2.045-3.331-1.191-6.768-2.046-10.111-3.184-2.381-.772-3.832-2.895-5.412-4.675-.501-.819-1.533-.354-2.281-.442-2.417-3.478-3.337-7.729-5.56-11.284-1.75-2.228-2.257-5.188-2.888-7.888-.938-4.84-3.927-9.143-3.673-14.219-.171-1.71-1.757-2.913-1.763-4.664-1.126-10.411-2.582-20.916-1.326-31.387.766-4.663 1.515-9.338 1.863-14.054-2.665-3.125-1.521-7.505.566-10.6 2.039-.348 1.703-2.576 2.157-4.127 1.704-3.502 5.589-5.412 6.992-9.096 1.409-2.335 3.773-3.991 4.775-6.597.938-.136 1.887-.3 2.771-.672 2.476-.124 4.145-2.636 6.568-3.225 3.484-.79 7.115-.189 10.641.041Zm-5.677 11.425c-2.235.19-3.632 2.135-5.182 3.508-1.056 1.061-2.618 1.981-2.429 3.714-.849.843-1.704 1.675-2.47 2.577.017.978.689 2.287-.814 2.552l.236.743-1.421.024c.366.288 1.085.872 1.45 1.167h-.913l.188 1.244c-.265-.177-.802-.525-1.067-.696-1.037 3.885-.866 7.959-1.822 11.862-.353 1.839-1.108 3.678-.672 5.577.543 1.733-1.438 2.977-1.096 4.716-.112.979 1.173 2.435-.372 2.877.224.242.46.483.702.725-.725.725-1.085 1.61-.967 2.63-.295.878.036 1.674.513 2.405-.377.595-1.014 1.143-.872 1.927.005 2.795.053 5.631.795 8.348.319 1.515.991 3.084.531 4.64-1.061 3.242-.778 6.697-.902 10.057-.012 3.178-.542 6.432.377 9.545.596 2.671 2.6 4.775 3.107 7.475.307 1.521.831 3.007 1.698 4.304 3.567 5.223 9.226 9.097 15.534 10.034 1.963-.053 4.145.377 5.837-.908 2.175-1.533 4.975-1.385 7.286-2.618-.454-3.543 2.046-6.308 3.986-8.96.607-.313 1.627-.16 1.969-.891 2.045-3.619 3.661-7.493 4.681-11.531 1.208-4.575 2.387-9.273 2.028-14.049-.407-3.961-.195-7.988-1.156-11.879-.737-3.295 1.279-6.438.713-9.721-.878-6.132-.359-12.369-.878-18.518-1.197-1.768-2.393-3.555-3.012-5.636-.696-2.27-2.412-4.516-1.504-6.968-1.715-2.906-3.944-5.66-6.986-7.245-2.081-1.08-3.967-2.653-6.349-3.019l.23-.477a121.07 121.07 0 0 0-1.539-.254c-1.491.938-3.036-.666-4.61-.365-1.639.236-3.178.908-4.828 1.084Zm311.34-11.519c.525-.39 1.061-.772 1.604-1.161.082.377.241 1.126.324 1.497.277-.242.825-.731 1.096-.973.401.165 1.197.484 1.598.649 1.02 4.922.955 10.016-.424 14.862.99 1.043 2.823 1.19 3.089 2.877-.177.43-.537 1.29-.72 1.727.201.837.395 1.68.584 2.53-.931.259-1.898.46-2.836.618.071 2.347 1.799 4.817.437 7.028.294.147.878.454 1.173.607a60.256 60.256 0 0 0-.501 2.246c.56 1.55.725 3.195.53 4.828-.607 7.263.395 14.603-.784 21.813.065 2.099-.171 4.687 1.586 6.196.82.873 1.067 2.087 1.674 3.101 4.345-.177 8.502-2.464 12.929-1.78 1.374 1.273 2.517-.69 3.932-.619 2.252.094 4.97-.295 6.249-2.406.142-1.468.03-2.989.796-4.321-.589-1.763.277-3.307 1.551-4.474a34.081 34.081 0 0 1-1.085-.82c.118-1.621-.1-3.254.029-4.875.378-1.227 1.026-2.347 1.592-3.502a86.19 86.19 0 0 1-1.238.059c-.083-2.064.619-4.033 2.022-5.56-.247-.141-.749-.418-.996-.56.477-.666 1.32-1.232 1.256-2.163.229-2.812.288-5.642.589-8.448.147-.885-.46-1.633-.778-2.406.206-.27.619-.807.825-1.079.065-4.657-.902-9.361-.277-13.99-.153-.288-.471-.872-.625-1.16.012-1.026.024-2.046.018-3.066l1.934-.33c.182-2.046.377-4.092.542-6.137 1.309.577 2.276 1.591 3.183 2.67 1.492.212 3.013.03 4.522.218 1.598.366 1.338 2.305 1.568 3.532.867 6.479-.613 13.034.395 19.49.16.925-.23 1.757-.754 2.482.188 1.25.289 2.517.112 3.779.448.518 1.002.984 1.338 1.609.601 2.995.519 6.096.024 9.103a33.77 33.77 0 0 1-.702-.272c-.931 1.168-2.606 2.523-1.385 4.115.348-.106 1.037-.324 1.385-.43.413 2.323.277 4.645-.914 6.727.248.265.743.79.985 1.055-.372 3.39-.431 6.797-.56 10.205-1.032 3.195-1.775 6.703-.725 9.998.807 2.258.365 4.681.454 7.022-.118 2.594.353 5.152.713 7.711.501 2.812-1.209 5.394-1.067 8.2-.148 7.293-.301 14.638.595 21.89 1.085 4.628 1.604 9.356 2.07 14.078.389 1.562-1.309 2.258-1.84 3.472l-.194 2.305c-.46.696-1.327.973-1.958 1.462-.984.554-1.214 2.04-2.476 2.187-1.851.443-3.849.737-5.706.248-1.704-.796-.69-3.036-.696-4.457-.531-.395-1.468-.525-1.368-1.362-.295-6.196-.342-12.403-.589-18.605-.148-1.916 1.167-3.514 1.474-5.353.206-3.325.241-6.804-1.327-9.834-.059-3.767.065-7.534.053-11.301.242-5.247-.707-10.512.201-15.729-.537-.625-1.026-1.238-1.533-1.863-1.008-.077-2.011-.153-2.995-.23l-1.102.637a41.348 41.348 0 0 0-3.414 0c.053-.195.153-.59.206-.79-1.249.76-2.711.796-4.115.843.077.277.236.819.313 1.096-1.368-.147-2.771-.277-4.08.195-3.248 1.043-6.52 2.016-9.692 3.289.23.478.466.961.72 1.445-.578.536-1.557.825-1.71 1.686-.554 2.889.124 5.995-1.12 8.755-.961 1.78.578 3.537.365 5.382-.123 9.238-.577 18.494.466 27.702.478 2.47-.79 4.793-2.329 6.627.578 3.012 3.184 6.514.861 9.367-2.028-.336-4.044-.259-6.066.006-.619-.513-1.085-1.185-1.574-1.792-1.056.554-2.111 1.103-3.154 1.663-.248-1.527-.661-3.042-.714-4.587 1.374-3.92.708-8.224-.235-12.162-.667-1.515-.56-3.178-.537-4.787.66-.82 1.285-1.669 1.875-2.553-.154-1.444-.666-2.777-1.232-4.097.059-2.836-.395-5.789.648-8.507.171-.896 0-1.816-.071-2.706-.907-3.537-.218-7.198-.188-10.795-.012-4.109.813-8.412-.749-12.344-.648-1.651.059-3.42-.006-5.129 1.008-.767 2.14-1.669 2.046-3.095-.377-1.563-1.462-2.842-1.881-4.375-.253-10.128-1.362-20.262-.666-30.396.425-1.633 1.651-2.942 2.005-4.61-.301-1.45-.366-3.178-1.675-4.121-.041-1.887-.183-3.844.849-5.53-.2-.36-.589-1.079-.784-1.439.843-3.837.124-7.734-1.097-11.401-.66-1.386 1.203-1.87 1.681-2.913.395-1.904.436-3.896 1.161-5.724 1.692-.077 3.425-.731 5.017.23Zm4.168 68.504c.366.595.967 1.285 1.686.696 1.291-.702.159-2.075-.56-2.718-.418.66-.855 1.297-1.126 2.022ZM291.945 46.072c1.526-.489 3.342-2.075 4.887-.837.978 1.167 1.208 2.753 1.704 4.162-1.233 1.032-2.229 3.738-4.198 2.512-2.358-.914-2.187-3.773-2.393-5.837ZM508.57 47.31c.607-.807 1.014-2.098 2.199-2.193 5.111-.619 10.228.378 15.263 1.156 3.06.365 5.618 2.252 8.047 3.997 1.839 1.29 2.848 3.478 4.876 4.527 1.939 4.552 4.162 8.98 5.972 13.583.878 2.771 1.22 5.684 2.216 8.425-1.509.36-2.228 1.745-3.289 2.706-.166-.454-.49-1.368-.649-1.828-.802-.654-1.993-.336-2.936-.495-.212.802-.413 1.604-.637 2.4l-1.226-1.981c-.412.796-.813 1.591-1.261 2.358-.908-.85-2.193-1.533-2.406-2.877-1.037-3.856-1.768-7.788-2.865-11.62-.572-1.338-2.222-1.156-3.396-1.303-1.503-.884-2.9-1.945-4.504-2.653-1.58-.849-3.496-1.226-4.622-2.741-1.468-.33-3.13-.46-4.291.678-3.16 3.03-5.371 6.939-8.796 9.71 2.488 3.154-1.25 6.868-.442 10.299.501 1.627-.678 2.906-1.492 4.15.307 1.403-.466 2.694-.584 4.068-.342 3.242.024 6.561-.772 9.757-1.81 7.628-2.364 15.493-2.441 23.31-.088 4.934 1.073 9.816.637 14.75-.489 4.003 1.167 7.835 1.327 11.814-.012 1.987 1.302 3.55 2.134 5.253-.024 1.191-.348 2.376-.171 3.573.713.625 1.591 1.061 2.281 1.727 1.191 2.317 1.008 5.223 2.718 7.299 1.114 1.415 1.957 3.142 3.614 4.026 1.969 1.114 4.162 1.769 6.255 2.606 3.578.926 7.316.236 10.965.454.843-.442 1.787-1.35 2.765-.643.507.419.825-.165 1.114-.507.961-1.397 2.305-2.358 3.779-3.148 2.17-3.148 3.479-6.844 4.162-10.588 1.227-7.599.584-15.316.649-22.974-2.682-.183-5.247.625-7.811 1.256-.808.306-1.457-.401-2.152-.655l-.283-1.816c-.212-.141-.643-.418-.855-.56a25.89 25.89 0 0 0-.407-2.346c-1.179-.383-2.405-.607-3.572-1.026 1.297-1.25 2.588-2.712 4.451-3.071 3.672-.92 7.328-1.922 11.024-2.765 2.871-.289 5.766-.313 8.654-.472.678 7.481 2.753 15.187.731 22.621-.442 1.574-2.275 4.657.525 4.869.177 3.537.2 7.069.018 10.606.524-1.079 1.155-2.087 2.364-2.506-.236 1.893-.566 3.774-.926 5.648-1.338-.241-1.827-1.226-1.916-2.488-.395 2.087-1.35 4.233-.731 6.367.454 1.062-.637 1.763-1.155 2.535-3.655 4.269-7.122 8.69-10.866 12.876-2.281 1.68-4.887-.454-7.245-.82-4.734-.365-9.491-.495-14.22-.89-1.579-.2-2.812-1.326-4.244-1.904-1.987-.819-4.062-1.385-6.019-2.246-1.563-.702-2.311-2.364-3.62-3.372-1.828-1.533-4.54-1.509-6.161-3.337-1.468-1.533-3.225-2.965-3.873-5.058-.896-2.435-1.987-4.817-2.612-7.334-.23-1.238.938-2.04 1.61-2.883-.271-2.01-.784-3.968-1.156-5.948-.059-9.067.389-18.129.501-27.196-.365-2.605.195-5.471-1.32-7.787-1.014-1.48-.218-3.243-.024-4.835 1.651-9.709 3.785-19.372 4.416-29.223-.366-1.55-1.763-2.895-1.209-4.604a775.047 775.047 0 0 1 3.549-17.174c.702-2.092 2.07-3.902 3.431-5.624 2.235-2.028 5.265-3.26 6.91-5.913Zm-165.595-.542c.578.277 1.149.554 1.733.837l.047 1.368 1.651.542a69.61 69.61 0 0 1 .931-2.128l.331 1.833c2.01.631 3.696 1.916 4.651 3.82-.46.372-.908.743-1.356 1.115.955.053 1.922.1 2.889.059 1.261.884 2.906 1.403 3.673 2.836 1.662 2.705 2.906 5.659 4.81 8.218 1.185 1.444.714 3.472 1.415 5.123 1.904 5.081 3.567 10.263 4.899 15.528 1.586 6.231 3.437 12.469 3.691 18.936.112 3.319.737 6.644.253 9.963-.908 7.122-2.122 14.196-3.36 21.265a52.514 52.514 0 0 1-2.494 9.468c-1.686 4.457-2.128 9.32-4.315 13.594-1.28 2.435-2.017 5.289-4.151 7.163-2.205 2.305-2.847 6.137-5.989 7.493-1.038.224-1.032 1.38-1.38 2.158a125.42 125.42 0 0 1-2.393-.672c-.466.979-.908 2.057-2.152 2.146-.696.047-.071.766-.041 1.132-1.239.277-2.465.695-3.744.707-.89-.631-1.698-1.373-2.623-1.939.064-.171.194-.525.265-.696-1.327-.371-2.624-.873-3.785-1.609.424.595.878 1.161 1.321 1.75-3.42.572-6.627-.955-9.981-1.279-.036-.377-.101-1.126-.13-1.497-.36.271-1.073.819-1.427 1.096-1.479-.483-3.024-.713-4.557-.371-2.706-1.757-5.948-2.865-8.135-5.3-1.964-4.186-2.429-8.902-3.897-13.271-1.144-2.364-2.7-4.563-3.343-7.145.065-1.456.601-2.877.254-4.339.235-.412.477-.825.719-1.238-.566.189-1.132.378-1.692.572-2.122-2.01-1.686-5.011-1.775-7.652.395-.171 1.179-.507 1.569-.678-.101-1.332-.802-2.453-1.315-3.643-.136-1.822.253-3.768 1.922-4.787.017-4.728.2-9.51-.926-14.143-1.427-5.613-1.149-11.567.26-17.156.996-5.029.937-10.21 1.975-15.24 1.078-5.44.677-11.484 4.061-16.194 1.757-2.335 3.337-4.822 5.153-7.104 2.765-1.491 4.133-4.362 5.453-7.057 1.957-.725 3.508-2.258 5.583-2.711 1.509-.667 3.231-.024 4.693-.89 3.537-.007 7.463-.278 10.6 1.662.041-.413.118-1.232.159-1.645Zm-9.557 12.357c-3.159.79-6.031 2.376-8.931 3.773-2.453 2.576-4.15 5.807-5.966 8.849-1.633 2.776-.03 5.948-.401 8.907-.537 1.009-1.515 1.663-2.246 2.512-.024 4.292-.207 8.584-.295 12.875-.018 1.115-.984 1.905-1.32 2.925-.844 7.616-1.309 15.286-1.138 22.95.1 1.586.825 3.072.819 4.675.065 2.205-.159 4.439.295 6.621.584 2.959 1.81 5.771 2.069 8.801.248 3.019 2.223 5.477 3.738 7.977 1.297 1.987 1.297 4.634 3.024 6.367 1.698 1.715 3.184 4.026 5.854 4.174-.129.194-.389.595-.519.79 4.192-.018 8.384.442 12.581.218 2.016-.035 4.027-.973 5.159-2.677 1.975-2.93 2.163-6.596 3.661-9.739l.536 1.934c.56-1.067.478-2.824 2.016-2.959.26 1.025.101 2.163.596 3.124.79.937 2.116.79 3.219.932 1.132-2.376 2.505-4.681 3.036-7.287.489-2.523.866-5.076 1.586-7.546 1.668-4.74 2.157-9.787 2.599-14.762.166-5.424.785-11.042-.978-16.289-.843-2.376-1.845-4.775-1.798-7.346.159-5.565-.837-11.095-.625-16.66l-1.698.023c.578-.577 1.179-1.131 1.78-1.686a92.018 92.018 0 0 0-.972-2.346c-.684.242-1.374.46-2.011.796-.371 2.694.23 5.412.301 8.112-.436.03-1.309.083-1.745.112-.041.937-.1 1.875-.177 2.812-.725-1.332-1.244-2.77-2.228-3.938-1.881-2.924-1.197-6.88 1.403-9.156.613-.047 1.232-.094 1.857-.147-.142-1.214.124-2.535-.425-3.66a7.664 7.664 0 0 0-1.868-.667c-.23-.825-.272-1.745-.767-2.464-2.417-2.418-5.158-4.905-6.208-8.26-1.09-.147-1.751-.855-2.104-1.863-2.3-1.491-5.011-2.17-7.7-2.511-1.114 1.008-2.617 1.285-4.009 1.704Zm17.751 95.239c-1.969 1.515-.247 3.991.283 5.795 2.223-.406 2.524-2.694 2.913-4.515-.767-.832-2.058-2.418-3.196-1.28Zm30.886-105.692c.778-1.043 1.698-2.17 3.119-2.234 2.747-.189 5.506-.012 8.259.124.519.495 1.05.984 1.586 1.468a33.054 33.054 0 0 1 .018-2.182c2.216 1.044 2.128 3.473 2.9 5.448-.112 1.591-.642 3.189-.006 4.757-1.043 4.48 1.356 9.085-.017 13.5-.708 5.542.76 11.29-1.073 16.678-1.156 7.134-.495 14.379-.336 21.56a27.837 27.837 0 0 0 2.051 10.676c.725 4.375-.902 8.755-.613 13.135.283-.471.843-1.409 1.126-1.874.324 2.605.431 5.288-.124 7.87l-1.108.99a77.654 77.654 0 0 1 .702 15.204c.035 1.38-.855 2.5-1.439 3.679.489 1.055.112 2.181.118 3.284.625 1.226 1.321 2.665 2.671 3.219 1.155.059 1.933-.849 2.653-1.61 3.295 1.179 7.009.277 10.434-.059 3.202-.312 6.361.348 9.498.861-.342.177-.672.36-1.002.542l-.071 1.533c1.079.324 2.163.631 3.207 1.079.324 1.456.389 2.977.949 4.38-.525 1.073-1.144 2.435-2.517 2.524-4.805.459-9.657.731-14.462.035-4.209-.66-8.465-.147-12.692-.537-1.787-.188-3.543.242-5.294.537-1.857.371-3.897.418-5.436 1.662-.631-.283-1.256-.571-1.875-.86.142-1.203-.66-1.675-1.668-1.91a703.16 703.16 0 0 0 1.657-2.447c-2.818-6.137-.602-13.041-1.952-19.455a10.995 10.995 0 0 0-1.509-1.45c-.336-4.846-.354-9.763.749-14.514.3-.991-.077-1.975-.254-2.942.79-.79 1.604-1.698 1.504-2.912.106-6.09.023-12.186.153-18.282.047-2.57.583-5.117.448-7.693-.047-1.451-1.226-2.594-1.179-4.056-.124-3.06-.024-6.132-.077-9.191.826-.183 1.657-.372 2.482-.566.1-2.459-.424-4.923-1.721-7.033.236-.154.707-.466.949-.625-.342-.383-1.014-1.144-1.35-1.521.312-1.722 1.863-2.795 2.788-4.186-.778-1.615-1.963-3.154-1.55-5.117.289 1.792-.03 3.42-.943 4.893-.502-2.9-1.003-5.895-.702-8.843.802 1.568 1.25 3.266 1.775 4.946.2-2.67 1.279-5.317.648-8.012-.884-.153-1.999.112-2.612-.707-.524-2.37-.129-4.829-.188-7.234-.33-.135-1.002-.418-1.339-.554.03-1.486-.129-2.989.107-4.457.819-.566 1.945-.684 2.558-1.52Zm315.703 1.598c7.676-2.211 15.682-.401 23.499-1.28 3.348-.029 7.487-1.373 10.046 1.551 2.204 2.93 6.095 3.584 8.554 6.231 2.063 1.934 2.829 4.746 3.737 7.334.466 1.545 1.168 3.09 1.032 4.746-.342 5.695-.483 11.42-.996 17.102-1.71 4.204-2.453 8.714-3.691 13.065.254.3.767.907 1.02 1.214-1.108 1.303-2.405 2.417-3.655 3.578-1.268 1.138-1.462 2.913-2.175 4.369-1.734 1.55-4.876.371-6.208 2.476-.655 1.197-2.134 1.161-3.29 1.409-.33 1.486-1.574 2.093-2.953 2.311l.07 1.657c-1.061 1.102-2.499 1.202-3.926 1.114-1.698.542-3.39 1.185-5.2 1.132-1.898.89-4.474-1.097-5.818 1.037-2.583 0-5.194.454-7.493 1.639-1.103 1.928.371 4.593-1.115 6.456-.878 1.155-.795 2.706-.383 4.02-1.161 4.086-.884 8.513-.377 12.693-.283.819-.643 1.633-.625 2.511-.094 7.305-.371 14.603-.395 21.908-.041.931.454 1.538 1.491 1.815l-1.249.378c.2.43.595 1.291.79 1.721-1.356 1.22-1.209 2.883-.578 4.439-.407 2.765.407 5.902-1.173 8.378-2.164.79-4.546.748-6.798 1.114a24.988 24.988 0 0 1-2.535-2.335c.761-2.576 0-5.217-.076-7.823-.224-4.374-1.12-8.672-1.368-13.04-.383-4.776-.165-9.574-.554-14.35-.914-5.6-1.633-11.46-.136-17.031.537-2.488.425-5.053.495-7.582-.241-.247-.731-.754-.972-1.008l.772-.648c-.206-.13-.625-.39-.831-.525-.602-3.166-.024-6.355-.142-9.545-.141-8.648-.065-17.297.03-25.94-.03-5.694.389-11.383-.053-17.06.471-2.553.218-5.283 1.02-7.712-.142 0-.437.012-.578.012.183-1.42.053-2.853-.036-4.274l.832-.849c.194-1.014-.195-2.334.695-3.09 1.504-1.237 3.579-1.06 5.401-1.396 2.098-.16 3.867-1.456 5.895-1.922Zm-.525 11.59c.873.778 1.869 1.427 2.665 2.305-.442 3.048-1.144 6.178-2.83 8.808a187.82 187.82 0 0 1-2.446-1.103c-.283-.595-.543-1.185-.826-1.774-.065.737-.124 1.474-.183 2.21-.318-.365-.961-1.096-1.279-1.461.094 1.025.212 2.051.318 3.077.248.23.749.702 1.003.937.831 8.189.46 16.46 1.079 24.672.082 1.014.571 2.082 1.585 2.477 1.722.795 3.467 1.556 5.129 2.493 2.223 1.356 4.941-.43 7.151.938 1.987-1.362 4.469-.543 6.698-.891 2.275-.395 4.168-1.892 5.706-3.543 1.415-1.739 3.826-2.464 4.817-4.58.943-1.398.813-3.762 2.771-4.18 2.11-.495 2.47-2.854 3.148-4.57.412-5.47.159-10.982-.012-16.459-.006-1.043-.23-2.063-.572-3.036-.92-.519-1.733-1.167-2.317-2.04-.271-.053-.819-.16-1.096-.212-2.182-1.987-4.327-5.082-7.658-4.663-3.148.106-6.32.2-9.445-.224a52.317 52.317 0 0 0-1.757-1.415c-2.375.454-4.834 1.226-7.18.188-1.839-.795-3.549.554-4.469 2.046Zm-3.172 6.968c.366-1.049.737-2.098 1.097-3.148-.466-.147-1.397-.436-1.857-.578-.837 1.268-.819 3.102.76 3.726Zm34.034 25.162c.083.654.177 1.309.354 1.951.802-.194 1.421-.69 1.474-1.568-.519-.442-1.22-.324-1.828-.383ZM247.971 53.17c1.544-.92 2.977-2.971 4.981-2.323.832 1.05-.229 2.211-.312 3.343.265 1.05 1.403 1.445 2.181 2.052.071.713.142 1.432.218 2.146-.2.513-.377 1.037-.53 1.568-.23 4.74-.389 9.497-.083 14.237.207 2.777-.695 5.46-.972 8.2-.425.738-1.197 1.433-1.02 2.359.442 5.24.695 10.5 1.049 15.746.495 1.958 2.629 2.801 3.991 4.103.366 1.244.619 2.547 1.409 3.626 1.586-.825 2.618.366 3.732 1.297 2.93-.407 5.825-1.214 8.819-1.114 2.807-.159 5.513.701 8.283.92.649-.242 1.268-.566 1.899-.867.371-2.199 2.841-2.252 4.527-2.93.012-2.806-.312-5.606 0-8.4-.406-1.593-.619-3.214-.041-4.8-.141-3.673.142-7.363-.283-11.024-.878-3.402-1.102-6.927-1.008-10.429.177-.1.525-.313.702-.419-.289-.17-.873-.524-1.162-.701l1.374-.319c-.59-.907-.501-1.697.271-2.375a95.387 95.387 0 0 1-1.315-1.78c.26-.26.784-.779 1.044-1.038.047-.413.147-1.238.194-1.651-.53-1.096-1.037-2.205-1.55-3.313 1.232.295 1.727-.165 1.491-1.386.519.071 1.551.218 2.07.295 1.002-.937.784-3.1 2.458-3.366 1.928-.242 4.221.471 5.595-1.332.99 1.179 2.234 2.204 2.877 3.637.642 2.152.106 4.545 1.244 6.573.854 1.362-.684 2.577-.602 3.962.201 5.707-.165 11.407-.3 17.114-1.238 6.043 1.332 12.304-.72 18.264.46 2.034 1.067 4.133.584 6.226-.843 4.174-.601 8.448-.719 12.681-.159 8.247-.307 16.495-.425 24.742-.182 6.073.755 12.104.979 18.158-.472 1.957.731 4.021-.483 5.831 1.185-.077 1.739.43 1.662 1.521.313 1.426-1.462.854-1.951.2.029.425.065.855.112 1.285.294.277.89.82 1.185 1.097-.437.454-.879.902-1.333 1.338.042 1.763.354 3.579-.07 5.318-.378 1.096-1.557 1.468-2.453 2.01.383.053 1.15.165 1.539.218-.631.472-1.262.949-1.887 1.421-.147-.277-.448-.843-.595-1.126-.177.584-.519 1.751-.69 2.334.259-.082.784-.241 1.049-.324-.011.389-.029 1.173-.041 1.562l1.285-.112-.89-1.22c.702.1 1.409.201 2.123.301-.543 1.138-.413 2.694-1.433 3.537-1.71.307-3.455.112-5.17.059-.696-1.043-1.056-2.252-1.539-3.39-1.291-1.061-2.594-2.105-3.52-3.514 1.203-2.476.219-5.134.171-7.728.089-3.496-.536-6.963-.707-10.447-.926-3.69.407-7.487-.631-11.136 1.203-2.229 2.282-4.605 2.417-7.169.053-1.285-1.25-2.052-1.509-3.237-.407-1.851-.631-3.731-.961-5.594.607-1.026 1.427-1.91 2.028-2.942-1.049-2.494-.082-5.701-2.423-7.67.136-1.167.23-2.34.083-3.514.065-.017.2-.059.265-.076-.926-1.527-.69-4.463-3.225-4.086l.159 1.244c-2.953.283-5.93.266-8.896.313-1.497.23-2.594-1.12-4.05-1.15-4.303.006-8.536.884-12.746 1.674 1.026 3.337.136 6.768-.07 10.152.695 1.079 2.034 2.4-.036 2.971l1.262.637c-.277 1.02-.666 1.999-1.209 2.901l1.58-.549c-.501.466-1.509 1.403-2.016 1.869.707 1.274 1.385 2.771.33 4.092.708.577 1.279 1.273 1.297 2.24-.536 0-1.615.006-2.152.006-.135 3.714-.053 7.44-.342 11.142.785.271 1.698.212 2.418.666.235 1.857.666 3.974-.496 5.618-.89 1.433-.253 3.149.236 4.599-1.692 3.478-.454 7.434-.371 11.118-.106 1.675.843 3.09 1.238 4.646-.419 1.138-1.297 1.916-2.335 2.488a17.462 17.462 0 0 0-1.739-.625c-.666 1.22-1.173 2.529-1.945 3.696-.69-.583-1.333-1.214-2.07-1.727-1.497-.383-3.325.307-4.592-.755-.572-1.562-.307-3.283-.472-4.91-.041-4.947-.908-9.928-.023-14.845.513-3.578.212-7.163-.083-10.735l-1.533.477c.33-.306 1.002-.931 1.333-1.244l-1.356-.224 1.963-1.114a53.64 53.64 0 0 0-2.17-.183c.407-.418 1.227-1.25 1.639-1.668l-1.928.925c.372-.501 1.115-1.497 1.486-1.998a23.296 23.296 0 0 0-1.939-1.091c-.378-.908-.678-1.851-.785-2.83.973.053 1.946.16 2.913.325.241-3.131.129-6.302-.731-9.344.041-1.02-1.026-1.132-1.722-1.463-.017.507-.053 1.516-.065 2.017-.412-.737-.79-1.48-1.149-2.235.719-1.922.418-4.026 1.061-5.978-.33-8.454-.778-16.937.23-25.367.301-1.398 1.521-2.647 1.091-4.157-1.221-4.185-1.457-8.566-2.046-12.87-.354-3.536-1.262-7.062-.855-10.64.13-3.714.855-7.405.719-11.113-.642-3.213-.065-6.473.154-9.692.395.212 1.179.643 1.568.86 1.008-1.85 3.596-2.888 3.454-5.205l1.115.024c-.024-.283-.065-.838-.089-1.12.366 0 1.103.005 1.468.011-.012.419-.029 1.268-.041 1.692Zm4.811 52.328c.135.89 0 1.892.495 2.688.672 1.085 2.14.648 3.195.861a46.476 46.476 0 0 0-3.69-3.549Zm-83.095-53.471c.701-.124 1.479-.095 2.033.412.337 1.645-1.65 2.771-3.089 2.37-.241-.99-.082-2.435 1.056-2.782Zm451.024.465c.773-.106 1.574-.212 2.364-.324l-.011 1.09c.277-.27.831-.813 1.108-1.078a6.961 6.961 0 0 0 2.447-.654c.489.837.902 1.715 1.308 2.605 1.433-.047 2.866-.088 4.298-.247.124 1.975.313 3.95.755 5.883.878.23 2.028.094 2.653.908.66.802.577 1.922.772 2.895.554 5.323 2.093 10.464 3.337 15.652.707 2.912 1.073 5.895 1.798 8.802.536 2.21 2.234 3.908 2.741 6.137a67.001 67.001 0 0 0 2.476 7.487c.625.165 1.262.336 1.904.507.142 3.472.967 6.886 2.193 10.134.696 1.433 2.476 2.187 2.583 3.926.701.26 1.426.513 2.146.767.005-.82-.36-1.792.271-2.482.884-.702 1.874-1.256 2.806-1.916-.584-2.824.619-5.518.908-8.295.324-2.411.242-4.958 1.432-7.169 3.149-6.384 2.924-13.677 3.785-20.58.82-5.471-1.014-11.214 1.067-16.502.637-1.627 2.824-3.52 4.357-1.721.383-.413.784-.825 1.191-1.238 1.085 2.27 3.973 2.63 5.589 4.44.235-.225.707-.679.943-.909-.283 1.032-.672 2.058-.607 3.142l-.478-.094c.625 2.688-.584 5.253-1.197 7.811-1.314 5.03-2.824 10.017-3.867 15.104-.69 5.772-1.161 11.573-1.727 17.362-.849 2.765-2.529 5.206-3.361 7.988.714-.324 1.421-.66 2.176-.931 1.185.383.925 1.692.796 2.629-.272 2.323-1.132 4.54-2.347 6.521-1.232-2.034-.996-4.422-1.138-6.686-.383 1.828-.778 3.661-1.008 5.518-.017 2.07.165 4.174-.406 6.196-.849 2.93-.891 6.067-2.264 8.838-2.771 6.013-4.204 12.58-4.51 19.183.124 2.223-1.374 4.233-.708 6.45.224 6.484.33 12.987.684 19.472.118 3.714.153 7.505 1.498 11.024-2.948-.277-6.132.661-8.891-.625l-.33.767-.613-1.162a87.21 87.21 0 0 1-.861 1.286c-.902-.437-1.745-.991-2.541-1.58.213-4.699 1.209-9.303 2.117-13.896.277-1.385 1.197-2.647 1.037-4.097-1.32-9.574-1.744-19.237-2.163-28.881-.083-4.163-1.073-8.224-1.539-12.339-3.696-4.528-5.37-10.282-6.355-15.947-2.258-7.47-5.023-14.792-7.045-22.338-.377-1.998-.224-4.062-.53-6.078-.136-.236-.419-.707-.561-.95.749-2.063-.772-3.95-1.043-5.965-.796-5.347-3.897-9.91-5.913-14.845-.772-2.24-2.659-4.256-2.423-6.726-.755-1.31-.82-2.824-1.103-4.269Zm-43.92 3.938c2.122-.666 4.368-.725 6.52-1.297 3.39-.896 6.656 1.286 10.058.549 2.187 1.963 5.477 1.073 8.124 1.037a70.407 70.407 0 0 1 7.08 2.842c.902.295 1.303 1.185 1.792 1.928.265.023.784.076 1.044.1.843 1.226 1.332 2.836 2.599 3.69 2.907 1.115 4.899 3.827 6.096 6.597 1.828 7.092 2.37 14.473 1.963 21.772-.589 1.503-1.279 3.007-1.338 4.651-.389 2.983.584 6.391-1.356 8.991-.89 1.391-3.107 1.586-3.231 3.49-.4 1.68-1.479 3.048-2.558 4.351-.466.589-1.138 1.544-.43 2.216 2.664 2.4 4.026 5.801 6.325 8.501 1.073.938.383 2.471 1.038 3.62 1.993 5.153.861 10.718.855 16.071-.154 9.993.389 19.985.465 29.978-.501 2.505-.336 5.282-1.397 7.611-1.68.141-3.213.589-4.02 2.199a39.59 39.59 0 0 1-.796-1.893c-.195-.194-.572-.577-.761-.766-.554 2.482-2.482 4.604-5.194 4.469-1.367-1.863-.825-4.28-1.09-6.426-.926-.348-2.217-.891-1.704-2.146.979-6.291 1.279-12.811 3.791-18.73l.89-.89-.401 3.378.92-.92c-.183-2.759.2-5.5.448-8.236-.313-.106-.938-.306-1.244-.412-.525-3.408.46-6.798.253-10.211-.147-2.741.118-5.542-.654-8.206-.595-2.093-1.055-4.451-3.013-5.725-3.554-2.682-5.594-7.687-10.387-8.418-4.563-.843-9.179-2.358-13.843-1.321-1.344-.1-2.246.82-3.03 1.763-1.285-.472-2.623-1.073-3.991-.584-.513 1.256-1.503 2.176-2.458 3.084 1.014 5.854.035 11.773.2 17.662.106 5.506-.289 11.024.313 16.507-.36 7.994-.555 16.088-2.329 23.918-1.002.813-2.482 1.019-3.425 2.004-1.969-.224-4.198-.672-5.518 1.209-1.633-1.781-2.364-4.198-1.869-6.586.466-6.85 1.043-13.706 1.055-20.58-.637-7.994-.66-16.024-1.002-24.042-.018-1.515-.478-3.083-1.987-3.761l-.442 1.527c-.578-1.863-.731-3.832-.165-5.718-.413.117-1.244.359-1.663.477.513-1.126.932-2.317 1.71-3.295.466-.72 1.338-1.409 1.026-2.382-.519-.979-1.545-1.521-2.264-2.317.254-.82.678-1.574 1.02-2.364-.177-1.397-2.057-2.712-.961-4.162.466-.944 1.58-.814 2.458-.949-.265-3.939-.165-7.912-.907-11.803-.325-.077-.973-.224-1.297-.3-.643-2.453-.643-4.982-.684-7.494-.655-3.065-.283-6.201-.737-9.29 1.886-2.483 1.415-5.566 1.155-8.437-.147-2.323 2.358-3.172 3.561-4.734 2.022-2.653 3.608-5.606 5.542-8.324 3.684.159 6.467-2.512 9.845-3.473Zm9.727 9.026c-2.829.254-5.783.012-8.289 1.598-.689 2.452-1.751 4.81-3.519 6.68-.035 1.125-.448 2.192-.495 3.313-.384 8.866-.496 17.904 1.703 26.564.702.837 1.769 1.327 2.382 2.282 1.014-.242 2.052-.761 3.113-.395 3.231.754 6.367 1.857 9.497 2.935 3.154.242 6.332.089 9.504.142 1.733-.047 3.555.183 5.199-.513.849-.837.46-2.158.625-3.219.631-.56 1.339-1.138 1.409-2.057 1.663-7.31.849-14.886.254-22.279l.896.542c-.183-.907-.124-1.792.654-2.434-.389-2.877-2.735-4.71-3.72-7.34l1.197.183c-1.067-.566-1.963-1.35-2.747-2.24-1.427-1.651-3.638-2.117-5.589-2.842-1.043.666-2.228 1.38-3.508.96-1.739-.194-2.022-2.15-2.936-3.289-2.028-.448-3.661 1.28-5.63 1.41Zm-8.106 43.443c1.279.153 2.293-.519 3.083-1.45-1.185.124-2.605.112-3.083 1.45ZM94.62 67.838c.254-.855.219-2.405 1.545-1.74.413 1.139-.625 1.587-1.544 1.74Z"></path>
  <path fill="#fff" d="M537.251 86.226c2.582-1.026 5.023-2.535 7.764-3.113.489 1.533 2.217 3.236 1.35 4.858-1.975 1.373-4.404 1.88-6.644 2.647-1.327-1.12-2.877-2.441-2.47-4.392Zm-407.046-1.032c.967-.413 2.07-.419 3.084-.189.613 1.557-1.757 1.804-2.836 1.922-1.209.342-1.268-1.48-.248-1.733Zm49.704 8.024c2.435-.319 4.304 2.045 3.313 4.338-2.093-.324-3.213-2.387-3.313-4.338Zm-90.954 8.972c1.881-1.344 4.304-.43 6.409-.371.389.772.772 1.55 1.126 2.34-1.498 1.368-3.372 2.553-5.489 2.376-2.07.03-3.508-2.782-2.046-4.345Zm308.994 7.069c-.177-1.893-1.527-4.18.253-5.689.59.613 1.185 1.244 1.757 1.886a18.29 18.29 0 0 1-1.049 3.644c-.236.041-.719.123-.961.159Zm104.661 9.149c.017-2.959-.443-6.148 1.014-8.86 1.403 1.662 1.126 3.902 1.302 5.919.101 1.933.166 4.268-1.609 5.518-.884-.543-.572-1.716-.707-2.577Zm-70.757 14.102c-.235-1.032.938-1.409 1.551-1.939 1.674 1.438 2.547 5.577-.436 5.865-1.144-.937-.961-2.611-1.115-3.926Zm-191.369 8.165c.507.908 1.108 1.792 1.32 2.83-.4.46-.848.878-1.332 1.256-.837-1.203.006-2.765.012-4.086Zm382.261 1.303c1.244.66 3.261.69 3.667 2.305a26.422 26.422 0 0 1-.135 5.465c-.065 1.822-3.166 2.559-3.826.761-.891-2.783-.342-5.754.294-8.531Zm-68.687 8.991c1.309 1.515 1.633 3.584.932 5.459-1.568-1.409-1.539-3.597-.932-5.459Zm-494.874 8.117c.908.625 1.621 1.857 2.895 1.61 2.287-.153 4.55.289 6.667 1.161l1.545-.519c1.603.867 3.608.808 5.082 1.905.424 1.751-.908 3.419-.466 5.193.306 1.227.153 2.447-.23 3.638.236 2.853-.43 5.736.253 8.56.024 1.857-.023 3.738.543 5.548.73 2.328 0 4.769.483 7.133.419 2.629-.536 5.2-1.332 7.658.636.513 1.491.902 1.739 1.769.424 1.22 1.515 2.711.39 3.885-1.351.872-3.013 2.169-4.652 1.232-2.005-.908-4.9 1.108-6.326-1.168-1.18-2.599-2.105-5.323-2.848-8.082-.235-1.35-1.774-1.863-2.234-3.072-.247-1.556-.177-3.148.3-4.651-1.049-1.368-1.037-3.042-.76-4.663-.424-7.446-1.627-14.904-1.185-22.391.313-1.568.354-3.16.136-4.746Zm493.1 12.947c-.701 3.348-2.358 6.449-3.708 9.58-1.315.011-2.453-1.174-2.629-2.412 1.697-2.729 4.498-4.527 6.337-7.168ZM28.186 186.571c1.975-.148 4.174-.106 5.312 1.81-.502 1.184-.49 2.464-.401 3.725-2.588 1.309-4.446-1.338-6.585-2.358.772-.943 1.467-1.945 1.674-3.177Zm45.589 25.916c.849.159 1.456.684 1.916 1.373-.272.254-.814.749-1.085.997-.472-.714-.69-1.539-.831-2.37Z"></path>
</svg>
