<?xml version="1.0" standalone="no"?>
<!DOCTYPE svg PUBLIC "-//W3C//DTD SVG 20010904//EN"
 "http://www.w3.org/TR/2001/REC-SVG-20010904/DTD/svg10.dtd">
<svg version="1.0" xmlns="http://www.w3.org/2000/svg" width="380.000000pt" height="380.000000pt" viewBox="0 0 380.000000 380.000000" preserveAspectRatio="xMidYMid meet">
<metadata>
Created by potrace 1.14, written by Peter Selinger 2001-2017
</metadata>
<g transform="translate(0.000000,380.000000) scale(0.100000,-0.100000)" fill="#000000" stroke="none">
<path d="M1208 3734 c-2 -1 -21 -3 -43 -5 -22 -1 -45 -6 -50 -10 -6 -5 -26
-11 -44 -14 -48 -8 -71 -23 -65 -40 6 -14 -10 -19 -68 -18 -10 0 -18 -4 -18
-9 0 -5 -4 -7 -8 -4 -10 6 -82 -51 -82 -66 0 -5 -9 -21 -20 -36 -13 -16 -17
-29 -11 -35 5 -5 6 -19 2 -31 -9 -25 -8 -37 2 -53 5 -8 4 -13 -3 -13 -8 0 -8
-6 0 -20 6 -11 7 -20 2 -20 -4 0 -8 -13 -7 -30 0 -16 3 -30 7 -30 5 0 7 -3 7
-7 -4 -27 3 -43 21 -43 11 0 20 -4 20 -10 0 -5 7 -10 16 -10 13 0 14 -3 5 -14
-7 -8 -22 -13 -34 -10 -20 3 -22 -1 -22 -37 0 -23 -6 -44 -14 -48 -9 -6 -10
-14 -5 -22 11 -18 13 -109 2 -115 -5 -3 -5 -10 -1 -17 6 -10 8 -27 12 -85 1
-7 5 -11 10 -8 4 3 18 -3 30 -13 21 -18 21 -18 1 -36 -28 -25 -61 -83 -51 -90
13 -7 20 -55 8 -55 -6 0 -7 -3 -4 -7 4 -3 2 -12 -4 -20 -9 -10 -8 -17 1 -28 7
-9 9 -22 4 -32 -4 -10 -8 -40 -9 -68 -3 -48 -1 -52 51 -103 30 -29 54 -51 54
-48 0 3 22 -16 49 -42 27 -26 95 -90 152 -142 141 -131 198 -190 204 -210 6
-18 45 -17 45 1 0 5 5 9 11 9 9 0 130 67 264 147 11 7 29 17 40 22 11 6 38 22
60 36 22 14 49 29 60 35 11 5 43 23 70 40 28 17 58 33 68 36 23 8 22 14 -8 47
-14 15 -23 27 -20 27 4 0 0 7 -9 15 -8 8 -19 15 -24 15 -12 0 -52 44 -52 58 0
7 -7 12 -15 12 -18 0 -157 134 -148 144 3 3 0 6 -8 6 -27 1 -49 47 -49 102 0
95 7 198 13 205 4 3 2 12 -4 20 -9 10 -8 13 0 13 7 0 9 5 4 13 -4 6 -8 21 -8
32 0 11 -4 26 -8 33 -5 6 -4 12 1 12 4 0 7 18 6 40 -1 29 4 46 22 65 24 26 39
31 48 16 3 -4 27 -5 53 -1 27 5 72 7 101 6 28 -1 52 1 52 4 0 4 109 9 235 10
39 0 63 -4 71 -13 6 -6 11 -36 17 -99 1 -10 4 -18 7 -18 4 0 15 -7 26 -16 18
-14 18 -14 -6 -3 -14 7 -27 12 -30 11 -3 0 -4 6 -4 14 1 8 -3 13 -10 11 -6 -3
-10 -10 -9 -16 2 -6 -2 -11 -8 -11 -8 0 -9 -4 0 -13 6 -8 9 -16 6 -19 -9 -9
-13 -68 -4 -68 4 0 6 -11 3 -25 -3 -16 1 -27 10 -31 25 -9 26 -42 1 -60 -19
-14 -20 -20 -11 -40 12 -25 33 -34 71 -29 14 1 25 -1 25 -6 0 -4 9 -6 20 -4
11 2 20 -1 20 -8 0 -8 3 -8 12 1 8 8 15 9 25 1 7 -7 13 -8 13 -3 0 5 40 9 90
9 49 0 90 -3 90 -6 0 -3 44 -4 98 -3 116 3 117 3 212 1 52 0 74 3 72 11 -1 7
3 12 9 12 5 0 7 5 4 11 -4 5 1 19 10 29 9 10 12 21 7 24 -13 8 -7 133 8 151 9
11 9 23 1 47 -7 21 -8 52 -2 86 4 29 5 55 0 57 -8 6 -6 31 4 41 4 4 2 13 -4
21 -6 7 -8 13 -3 13 5 0 9 26 8 58 0 31 2 62 6 67 6 9 6 32 0 38 -1 1 -4 37
-5 81 -1 48 -7 81 -15 86 -6 4 -11 10 -11 14 3 19 0 29 -6 23 -5 -6 -64 32
-83 52 -3 4 -13 7 -22 9 -10 1 -34 10 -55 19 -21 9 -58 18 -83 19 -25 1 -57 4
-72 7 -15 3 -30 1 -34 -4 -3 -5 -10 -6 -17 -2 -16 10 -510 10 -524 0 -6 -4
-13 -4 -16 0 -3 5 -90 7 -194 5 -190 -2 -324 -2 -510 2 -57 2 -104 2 -105 0z
m-78 -44 c0 -11 -3 -20 -7 -21 -5 0 -16 -2 -25 -4 -28 -5 -31 12 -6 29 30 21
38 20 38 -4z m1743 -407 c-4 -11 -3 -14 5 -9 8 5 12 0 12 -14 0 -11 7 -23 15
-26 8 -4 13 -10 10 -14 -9 -14 -46 2 -63 28 -15 23 -15 25 3 38 24 18 26 18
18 -3z m-323 -53 c0 -3 -6 -14 -13 -25 -18 -24 -41 -12 -25 14 10 17 38 25 38
11z m-980 -72 c0 -4 -7 -8 -15 -8 -8 0 -15 4 -15 8 0 5 7 9 15 9 8 0 15 -4 15
-9z m-48 -16 c-7 -2 -10 -8 -6 -13 6 -10 -9 -13 -19 -3 -11 12 5 33 21 27 10
-4 12 -8 4 -11z m965 -7 c0 -8 -4 -12 -9 -9 -5 3 -6 10 -3 15 9 13 12 11 12
-6z m-957 -113 c-1 -25 -2 -26 -15 -9 -7 11 -11 25 -8 33 8 22 23 6 23 -24z
m1365 -107 c-2 -43 -13 -72 -30 -79 -18 -6 -20 5 -4 21 7 7 13 34 14 60 3 60
4 61 14 43 4 -8 7 -28 6 -45z"></path>
<path d="M2085 2150 c-16 -11 -43 -27 -60 -36 -16 -9 -33 -22 -37 -28 -4 -6
-8 -8 -8 -4 0 4 -57 -27 -126 -68 -69 -41 -130 -74 -135 -74 -5 0 -9 -4 -9
-10 0 -5 -7 -10 -15 -10 -8 0 -15 -4 -15 -10 0 -5 -7 -10 -16 -10 -9 0 -27 -9
-41 -20 -14 -11 -32 -20 -39 -20 -8 0 -14 -4 -14 -10 0 -5 -6 -10 -13 -10 -7
0 -20 -9 -30 -20 -16 -19 -15 -21 9 -37 15 -9 39 -29 54 -45 32 -32 43 -34 64
-13 8 8 19 15 25 15 6 0 11 5 11 12 0 6 3 9 6 5 3 -3 39 14 79 39 40 24 77 44
83 44 5 0 12 7 16 15 3 8 9 14 13 13 9 -3 105 52 114 65 3 5 8 7 11 5 2 -1 35
15 72 37 38 22 71 38 73 35 2 -3 9 3 14 13 6 9 16 17 23 17 23 0 26 27 5 52
-32 39 -72 78 -78 77 -3 0 -19 -9 -36 -19z"></path>
<path d="M2365 1884 c-8 -9 -15 -13 -15 -9 0 3 -6 1 -12 -5 -22 -18 -142 -87
-165 -94 -13 -4 -23 -12 -23 -17 0 -5 -6 -9 -14 -9 -8 0 -16 -3 -18 -7 -1 -5
-23 -19 -48 -32 -25 -14 -63 -36 -85 -50 -22 -14 -42 -26 -45 -27 -13 -3 -46
-18 -50 -24 -12 -14 -61 -40 -75 -40 -8 0 -15 -2 -15 -5 0 -9 43 -67 70 -94
23 -23 29 -25 58 -15 18 5 30 13 26 16 -3 3 5 9 17 13 12 4 55 27 94 51 40 24
75 44 78 44 7 0 75 43 95 60 6 6 12 8 12 5 0 -4 13 3 29 14 16 12 34 21 39 21
6 0 12 3 14 8 2 4 24 18 51 32 26 13 47 28 47 32 0 5 8 8 19 8 10 0 24 7 31
15 7 9 19 14 27 11 28 -11 11 22 -34 65 -51 47 -84 57 -108 33z"></path>
<path d="M2630 1608 c-14 -13 -27 -22 -30 -20 -3 1 -13 -5 -23 -13 -9 -8 -20
-15 -23 -15 -5 0 -160 -88 -259 -147 -11 -7 -27 -15 -35 -19 -26 -13 -95 -58
-101 -67 -3 -5 -9 -8 -13 -8 -17 2 -24 -1 -44 -20 -20 -18 -22 -46 -2 -34 12
8 33 -23 24 -37 -10 -17 -13 -48 -4 -48 4 0 8 -19 8 -42 1 -24 5 -44 11 -46
12 -4 -7 -52 -21 -52 -5 0 0 -10 12 -22 20 -22 20 -22 0 -40 -17 -16 -18 -22
-7 -39 8 -13 9 -22 2 -27 -12 -8 -16 -42 -5 -42 6 0 -1 -51 -10 -79 -1 -2 4
-7 11 -11 10 -7 10 -15 -1 -39 -14 -34 -11 -41 17 -46 10 -2 19 -4 21 -5 1 -2
8 -3 15 -4 6 0 13 -12 15 -27 2 -18 -4 -29 -23 -39 -14 -7 -25 -17 -25 -22 0
-5 -4 -6 -10 -3 -5 3 -10 1 -10 -5 0 -6 -4 -9 -8 -6 -4 2 -14 1 -22 -4 -8 -5
-24 -3 -41 6 -28 14 -59 10 -59 -8 0 -5 -4 -6 -10 -3 -5 3 -10 1 -10 -5 0 -6
-4 -9 -8 -6 -21 12 -67 15 -74 3 -5 -8 -8 -6 -8 6 0 10 -5 15 -10 12 -6 -3
-13 0 -15 8 -4 9 -24 14 -58 15 -29 1 -63 2 -77 3 -47 3 -62 -1 -57 -15 3 -8
-2 -20 -11 -28 -15 -11 -15 -11 -4 3 10 13 9 19 -3 29 -12 10 -15 10 -15 -1 0
-9 -3 -10 -8 -3 -7 11 -36 25 -61 30 -39 8 -39 67 0 79 11 4 18 9 15 12 -3 4
-1 12 5 19 15 18 1 37 -22 31 -10 -3 -26 1 -36 9 -19 14 -15 16 27 18 23 1 25
5 26 46 0 25 3 52 7 60 11 30 15 60 7 60 -4 0 -11 24 -14 52 -8 59 -17 69 -55
58 -14 -4 -35 -5 -46 -3 -21 4 -27 4 -69 2 -14 -1 -32 5 -40 14 -10 9 -26 13
-43 10 -16 -2 -46 -4 -68 -3 -22 1 -118 3 -212 3 -95 0 -173 5 -173 9 0 4 -11
8 -25 8 -16 0 -25 -6 -25 -15 0 -8 -5 -15 -11 -15 -5 0 -7 -5 -4 -10 4 -6 1
-17 -5 -25 -16 -19 -15 -155 0 -155 4 0 7 -7 7 -15 0 -8 -3 -15 -7 -15 -3 0
-6 -11 -6 -24 0 -14 3 -23 7 -21 9 6 6 -119 -4 -126 -5 -4 -4 -16 2 -28 8 -15
9 -21 1 -21 -7 0 -10 -14 -8 -32 2 -25 8 -34 26 -36 20 -3 20 -5 7 -18 -19
-20 -23 -65 -10 -136 4 -25 1 -49 -9 -70 -32 -70 -11 -160 50 -211 48 -41 84
-54 147 -52 26 1 47 -1 47 -5 0 -11 129 -16 175 -7 11 2 30 1 42 -4 12 -5 25
-4 28 1 3 5 18 5 33 1 15 -4 68 -6 117 -3 50 3 156 6 238 6 81 1 147 5 147 9
0 4 9 3 19 -3 13 -7 22 -7 26 0 4 6 13 7 23 1 11 -6 24 -6 35 0 9 6 17 6 17 2
0 -4 112 -8 250 -9 234 0 249 1 234 17 -12 13 -12 19 -3 25 7 4 10 3 6 -3 -18
-28 47 -47 116 -33 22 5 37 4 37 -2 0 -5 10 -6 21 -3 12 4 41 8 65 10 50 3 65
12 44 25 -9 6 -10 10 -3 10 6 0 14 -4 18 -9 10 -16 95 22 134 60 46 45 97 128
93 154 -1 11 -2 25 -2 30 0 6 2 56 4 112 2 57 0 103 -5 103 -9 0 -6 22 9 60 5
13 6 39 1 58 -4 19 -5 44 -3 56 11 46 3 278 -9 287 -4 3 -4 16 1 29 7 20 5 28
-15 43 -22 18 -25 18 -42 3 -10 -9 -20 -16 -22 -16 -10 0 -4 67 7 81 12 14 11
31 0 60 -5 11 -1 16 11 16 22 0 38 -16 47 -45 6 -17 3 -22 -10 -22 -10 0 -14
-3 -11 -7 4 -3 2 -12 -4 -20 -9 -10 -6 -13 15 -13 15 0 29 6 31 13 11 32 11
100 -1 122 -7 14 -9 25 -3 25 15 0 10 40 -6 46 -12 5 -13 10 -4 20 13 16 3 68
-11 59 -6 -3 -10 2 -10 11 0 10 -3 15 -6 12 -3 -4 -14 1 -23 10 -46 43 -124
107 -149 122 -15 9 -33 24 -41 33 -19 24 -53 21 -81 -5z m166 -500 c11 -17 12
-48 3 -54 -12 -7 -38 36 -32 52 6 17 19 18 29 2z m-586 -34 c0 -8 4 -14 8 -14
8 0 8 -38 1 -70 -7 -26 -23 -38 -40 -29 -22 11 -13 60 12 66 24 7 24 15 -1 31
-11 7 -20 16 -20 20 0 4 9 8 20 9 11 1 20 -4 20 -13z m606 -45 c3 -6 2 -15 -4
-21 -6 -6 -12 -6 -16 1 -4 6 -1 11 6 11 9 0 9 3 -2 10 -9 6 -10 10 -3 10 6 0
15 -5 19 -11z m-1381 -168 c-3 -6 -11 -8 -17 -5 -6 4 -5 9 3 15 16 10 23 4 14
-10z m-8 -106 c8 -22 -6 -33 -17 -15 -13 20 -12 30 0 30 6 0 13 -7 17 -15z m6
-50 c0 -6 -7 -11 -16 -11 -16 -2 -16 -1 -1 3 14 4 15 7 3 15 -11 7 -11 9 -1 6
8 -2 14 -8 15 -13z m729 -165 c-3 -8 -12 -19 -19 -23 -7 -5 -11 -12 -9 -16 3
-4 -17 -8 -44 -8 -49 -1 -57 7 -35 33 6 6 18 10 28 8 10 -1 15 1 12 6 -3 5 5
10 17 12 46 6 56 4 50 -12z m-1317 -238 c0 -33 -20 -32 -21 1 -1 16 4 26 10
24 6 -2 11 -13 11 -25z"></path>
</g>
</svg>
