<svg xmlns="http://www.w3.org/2000/svg" width="570" height="215" fill="none" viewBox="0 0 570 215">
  <path fill="#fff" d="M62.297 1.404C65.162.945 68.005.244 70.919.157 79.33-.274 87.893.098 96.05 2.327c9.318 2.686 18.188 8.66 22.332 17.68 2.67-1.694 5.681-3.69 9.01-2.762 11.541 3.437 21.916 10.235 30.323 18.787 3.933-6.108 10.202-10.505 17.157-12.507 7.349-2.287 15.712-2.352 22.623 1.36 7.398 3.9 12.297 11.276 15.146 18.949 2.665 7.068 2.886 15.053.296 22.18 14.886.27 29.773.664 44.664.551.027-5.725-.049-11.444.027-17.163.07-2.881 2.023-5.31 4.408-6.739.054-2.007-.205-4.117.604-6.016 1.166-2.93 4.166-5.05 7.344-5.012 8.104-.017 16.208-.011 24.317 0 2.299-.076 4.343 1.138 6 2.622 1.586-1.49 3.588-2.655 5.822-2.617 9.9 0 19.806-.119 29.707.189 6.761.232 13.672-.82 20.298.993 1.397-.653 2.881-1.252 4.462-1.198 25.925.005 51.85.005 77.77 0 2.935-.086 5.795 1.597 7.192 4.165 1.063 1.856 1.026 4.058 1.209 6.124 1.705 22.16 3.464 44.324 5.169 66.483 11.859-8.751 27.393-12.134 41.869-9.55-1.349-8.341-2.655-16.683-4.009-25.019-.728-3.755-.421-7.591-.421-11.384.081-4.29 4.084-7.883 8.341-7.678 13.128-.005 26.26-.022 39.393.005 4.019-.102 7.705 3.151 8.136 7.144 8.234 47.178 16.597 94.335 24.76 141.523v.972c-.183 1.915-.96 3.776-2.325 5.147-1.506 1.548-2.93 3.286-4.889 4.268-2.12 1.063-4.554.733-6.836.782-65.819-.011-131.639-.005-197.453-.005-13.294.081-26.594-.195-39.878.188-4.877-.291-9.755-.167-14.632-.188H161.039c-8.244.313-16.505-1.722-23.842-5.439-7.743-3.879-13.619-10.397-20.196-15.857-13.434 1.413-27.069 1.009-40.347-1.554-1.349 3.431-3.08 6.776-5.557 9.539-3.426 3.852-8.067 6.469-12.955 7.996-6.685 1.835-13.92 1.284-20.427-.993-8.029-2.838-14.293-9.382-18.005-16.915-1.872-3.89-3.593-8.006-3.814-12.371-.011-4.02.723-8.061 2.26-11.779 2.612-6.42 7.986-11.47 14.255-14.281-11.19-11.471-17.222-27.593-16.85-43.564-.049-.89.178-1.839-.156-2.686C10.889 98.22 5.18 90.321 1.915 81.225c-1.947-7.171-1.91-14.79-.506-22.057 1.057-5.611 3.577-10.797 6.215-15.809 7.203-13.5 18.005-25.116 31.143-32.993 7.295-4.193 15.161-7.662 23.53-8.962Zm1.678 8.034c-7.3 1.111-14.19 4.052-20.573 7.699-13.597 8.029-24.393 20.476-30.933 34.817-3.954 7.98-4.866 17.363-2.935 26.028 1.49 4.894 4.139 9.323 6.707 13.715 2.59 4.397 5.05 8.876 7.71 13.235-1.381 14.525 2.99 29.789 12.863 40.682 4.537 5.115 9.658 9.847 15.652 13.214-7.073-.616-14.95-.508-20.816 4.057-4.44 3.21-7.068 8.471-7.467 13.888-.475 3.48.987 6.804 2.342 9.922 2.795 6.124 7.596 11.671 14.087 13.948 6.561 2.276 14.266 2.33 20.287-1.468 6.027-3.469 8.903-10.494 9.62-17.131 14.234 3.551 29.06 4.808 43.666 3.27 2.164-.032 4.694-1.117 6.566.453 4.322 3.604 8.46 7.419 12.712 11.099 7.581 6.436 17.616 9.938 27.555 9.577 132.739.005 265.479-.006 398.218 0 .847-.853 1.694-1.7 2.558-2.542-8.218-46.989-16.473-93.973-24.701-140.962h-39.592c.086 3.173-.27 6.378.345 9.512 2.04 12.62 4.031 25.246 6.065 37.866-11.94-5.142-25.969-5.687-37.979-.453-8.967 3.474-16.165 10.618-20.638 19.029-2.255-29.707-4.629-59.404-6.922-89.106H360.65c-.124 1.468-.243 2.93-.35 4.398-3.464-2.941-8.061-4.355-12.577-4.268-6.464.054-12.933.178-19.392-.108-7.3-.049-14.6-.011-21.9-.022v9.982c-4.036 0-8.072.005-12.102 0-.07-3.324-.227-6.647-.243-9.971-7.958-.022-15.916-.005-23.875-.01 0 3.371.006 6.738 0 10.11-1.489.049-2.973.103-4.456.162.016 6.464.005 12.928.005 19.392-.113 1.106 1.036 2.066.502 3.183-.675 1.721-2.8 1.942-4.398 2.093-21.209.205-42.419-.49-63.623-.82 4.651-4.818 8.271-11.06 8.374-17.913.027-6.798-2.763-13.402-6.89-18.717-3.631-4.737-9.599-7.58-15.582-7.154-6.588.464-13.387 2.897-17.773 8.028-3.993 4.608-5.509 10.802-5.903 16.753-1.861-4.758-4.57-9.231-8.271-12.787-7.327-7.667-16.478-13.58-26.556-16.915-2.871 1.727-5.838 3.389-8.196 5.811.394.491.728 1.106 1.413 1.225 7.004 2.045 13.845 5.018 19.57 9.61 6.803 5.379 11.918 12.614 15.695 20.362a342.782 342.782 0 0 1-5.708 14.174c-1.414.42-2.822.852-4.236 1.278-7.041-2.233-14.292-3.739-21.565-4.996-.567-6.927-1.759-13.974-5.05-20.179-1.139-2.239-4.031-2.341-6.216-2.557-3.086.065-6.318.367-9.108 1.802-3.868-5.59-9.22-10.678-16.008-12.307-6.685-1.694-13.704-.659-20.195 1.37-15.604 4.452-29.168 15.108-37.725 28.828l-2.477.308c-.297 2.158.07 4.467-.987 6.447-1.236 2.833-1.975 5.849-2.547 8.876-1.468-2.142-3.183-4.095-4.689-6.205-1.44-4.85-1.867-10.079-.534-15.005.75-3.259 2.547-6.118 3.734-9.22 6.723-15.696 19.596-29.169 35.977-34.688 5.94-2.207 12.442-2.196 18.663-1.522 12.453 1.959 24.528 6.238 35.518 12.41.529.362 1.16.432 1.781.54.183-.351.372-.702.566-1.047-1.063-4.139-2.465-8.342-5.287-11.644-4.759-5.406-11.65-8.52-18.669-9.658-8.384-1.37-17.044-1.537-25.385.222Z"></path>
  <path fill="#fff" d="M180.576 40.424c7.101-2.04 15.07 3.394 15.701 10.748 1.111 7.062-4.894 14.179-12.059 14.184-6.528.48-12.733-5.023-13.095-11.546-.685-5.994 3.615-11.989 9.453-13.386Zm224.841 3.75c9.269.021 18.533.118 27.797.135 3.987 51.3 7.974 102.6 11.956 153.906-10.693 0-21.387-.011-32.081.005-2.547-51.349-5.126-102.698-7.672-154.046Zm-129.675 1.144c4.322 0 8.649-.011 12.971.01.08 3.319.156 6.637.221 9.955 6.242.032 12.485.005 18.727.016-.091 3.599-.145 7.192-.232 10.791-6.307.027-12.614.167-18.921.2-.184 7.17-.454 14.336-.535 21.506.184 2.58-.415 5.811 1.878 7.646 1.203 1.284 3.291.469 4.052-.901 1.484-2.563 1.343-5.633 1.489-8.493 4.063.005 8.131.005 12.199.005.394 5.644.141 12.097-3.965 16.457-4.203 4.3-10.759 4.721-16.386 3.933-3.707-.362-7.387-2.25-9.27-5.557-2.547-4.247-2.53-9.378-2.428-14.163a3626.16 3626.16 0 0 0-.14-20.341c-1.398-.178-2.784-.362-4.176-.54-.006-3.507 0-7.02 0-10.527l4.521-.242c-.005-3.248 0-6.502-.005-9.755Zm36.219 0h13.084v11.195h-13.084V45.318Zm17.487-.028c6.426.422 12.868.14 19.3.146 5.163.038 10.095 3.594 11.514 8.584.928 4.554.512 9.216.528 13.818-.194 12.928-.215 25.855-.345 38.788h-13.213c-.006-16.165.016-32.335-.011-48.5.108-2.454-3.496-3.329-4.915-1.597-.497.6-.384 1.43-.448 2.148-.227 15.981-.545 31.963-.766 47.949-4.182-.005-8.363 0-12.545-.005.27-20.444.577-40.887.901-61.33Zm36.263.028h13.019c.054 6.803-.129 13.602-.059 20.405-.011 1.468.928 3.087 2.471 3.34 2.05.119 3.523-2.04 3.475-3.922.178-6.61.334-13.22.534-19.823 4.338.005 8.676-.006 13.019.005-.226 15.42-.291 30.846-.48 46.266.016 4.667-.858 9.863-4.564 13.09-3.88 3.728-9.658 3.987-14.709 3.458-4.402-.388-9.215-2.261-11.125-6.561-2.077-4.883-1.548-10.343-1.791-15.523h11.864c.189 3.572-.124 7.522 1.867 10.684 1.576 2.142 4.921.544 5.25-1.803.955-5.012.394-10.18.254-15.253-2.482 1.64-5.488 2.752-8.493 2.164-5.012-.95-9.933-4.85-10.408-10.203-.68-8.757 0-17.546-.124-26.324Zm-292.337 2.8c3.663-1.295 7.678-2.428 11.551-1.349 6.61 1.295 12.723 4.392 18.07 8.433-.194-1.133-.394-2.26-.594-3.388 1.543.038 3.13.038 4.597.588 3.033 1.057 5.239 4.063 5.288 7.284.005 3.663-.157 7.327-.173 10.996-20.832-2.747-41.917-3.815-62.911-2.52-1.51.135-3.032.173-4.554.216 6.405-10.273 17.45-16.634 28.726-20.26Zm238.248 12.776h12.949c.005 15.2 0 30.393.005 45.592-4.322.011-8.638 0-12.949.005-.005-15.199-.005-30.398-.005-45.597ZM503.9 68.448h28.591c7.586 43.256 15.172 86.511 22.752 129.767h-32.189c-.583-3.13-1.198-6.248-1.743-9.378-3.911 6.14-10.801 9.933-17.794 11.406-18.717 3.221-39.166-5.169-49.644-21.134-6.55-9.971-9.517-22.294-7.872-34.142.917-8.067 4.408-15.82 9.966-21.75 5.508-6.172 13.472-9.63 21.506-11.006 12.005-1.889 24.684 1.559 34.256 9.01-2.622-17.589-5.212-35.184-7.829-52.773Zm-12.992 68.258c-5.563 1.36-10.743 5.412-12.318 11.072-1.23 3.469-.712 7.273.286 10.726 2.023 6.642 7.786 11.519 14.109 13.947 6.939 2.768 15.474.874 20.643-4.489 3.205-3.707 4.673-8.892 3.696-13.715-1.387-6.566-5.573-12.75-11.789-15.582-4.527-2.034-9.723-3.081-14.627-1.959ZM35.449 74.324c25.86-2.936 52.298-3.157 77.856 2.26-.383 8.013-4.284 15.987-11.174 20.341-5.875 3.68-12.906 6.378-19.941 5.304-6.227-.804-12.248-3.356-17.044-7.435-3.75 3.28-8.256 5.601-12.966 7.154-2.79.842-5.773.292-8.498-.523-5.53-1.764-9.782-6.54-11.551-11.978-.761-5.207.766-10.597 3.318-15.123Zm129.076 1.44c.696-.404 1.516-.41 2.298-.496 2.067 1.748 3.054 4.403 3.146 7.057.135 6.178 1.192 12.28 2.174 18.366.167 1.257.61 2.52.405 3.804-5.396 30.916-10.807 61.832-16.203 92.748-6.383-2.444-12.674-5.298-18.285-9.242-5.115-3.55-9.69-7.845-13.721-12.588-16.542 1.22-33.376 1.193-49.595-2.697-2.034-.702-4.91.01-6.108-2.256-.976-1.78 1.198-3.242 2.622-3.89 7.35 1.694 15.01 1.36 22.408.13a75.303 75.303 0 0 0 26.648-9.513c4.586-2.579 8.719-5.848 12.804-9.14 2.616.826 5.816.934 8.12-.706 3.124-5.412 2.169-12.124 4.942-17.681 1.953-4.133 3.351-8.509 4.397-12.95 5.067-1.677 9.901-4.936 12.151-9.933 2.12-4.208 1.656-9.15.437-13.553-1.074-4.187-3.545-7.813-5.962-11.325a21.443 21.443 0 0 1 7.322-6.135Zm-2.855 123.055c6.955-39.884 13.937-79.761 20.892-119.645 17.47.038 34.935-.043 52.401-.075 4.661-.114 9.107 1.656 13.213 3.7 6.723 3.465 10.823 10.754 11.768 18.092.744 6.766-.562 13.85-4.036 19.737-2.709 4.602-6.96 8.098-11.676 10.51 7.91 1.759 15.679 6.226 19.613 13.532 2.514 5.088 2.935 10.953 2.73 16.542-.486 9.55-5.212 18.442-11.752 25.246-6.404 6.118-15.053 9.231-23.61 10.888-9.086 1.743-18.377 1.279-27.577 1.338-13.99.038-27.975.124-41.966.135Zm46.083-76.325c4.365.723 8.984.783 13.192-.728 4.392-1.581 7.635-5.676 8.552-10.197.361-4.042-2.067-8.304-5.806-9.955-4.181-1.716-8.816-.728-13.197-.993-.917 7.289-1.84 14.584-2.741 21.873Zm-3.944 23.784c-.896 8.703-1.894 17.4-2.752 26.108 5.142.869 10.387.367 15.566.195 4.452-.243 9.529-1.101 12.334-4.964 2.542-3.772 2.65-8.622 2.051-12.982-.583-4.392-4.711-7.753-9.027-8.071-6.043-.502-12.113-.2-18.172-.286Z"></path>
  <path fill="#fff" d="M135.189 88.303c4.209-.442 8.38-2.444 12.642-1.208 4.651 1.003 7.796 5.46 8.444 9.987.388 2.87.41 6.248-1.845 8.411-2.698 2.482-6.599 3.06-10.138 2.876-3.669-.075-6.907-2.012-9.934-3.89-1.041.205-2.082.399-3.123.588-5.299-2.309-11.083-3.264-16.834-3.41 1.559-1.511 2.827-3.302 4.413-4.78 1.98-.26 4.085.189 6-.464 2.654-3.06 5.163-6.259 7.796-9.345.588-.049 1.177-.097 1.77-.157.205.351.61 1.042.809 1.392ZM33.507 101.301c5.967 5.336 14.39 8.174 22.337 6.755 4.823-1.03 9.469-2.994 13.435-5.946 3.005 2.59 6.242 4.91 9.728 6.82-8.417 2.369-16.953 4.835-25.748 5.11a95.187 95.187 0 0 0 1.921 1.974c5.525-.215 11.099-.793 16.375-2.525 1.938.567 3.804 1.57 5.018 3.227 1.873 2.293 2.272 5.314 3.092 8.066-2.471.993-5.169 1.646-7.257 3.388-2.31 1.824-3.534 4.759-3.647 7.657-.006 1.893.701 3.679 1.219 5.471-.944 1.068-1.867 2.244-2.147 3.685-.464 1.64.34 3.259 1.106 4.672 5.789-2.061 11.59-4.192 17.654-5.282 11.735-2.331 23.939-2.563 35.707-.324-7.084 5.331-14.978 9.61-23.476 12.205-6.172 2.217-12.75 3.172-19.294 3.054-9.577.108-18.976-3.54-26.449-9.426-5.028-4.128-9.976-8.654-12.965-14.541-5.4-10.419-7.343-22.391-6.61-34.04Z"></path>
  <path fill="#fff" d="M78.38 112.178c12.815-2.53 25.91-3.755 38.967-3.118 5.757.345 11.551 2.611 15.442 6.976 3.739 4.257 6.312 9.82 6.069 15.577-10.424-2.606-20.61-6.124-31.153-8.261-6.577-1.203-13.321-.922-19.936-.135-1.317.211-2.52.81-3.793 1.177l-.459-.437c-.415-4.322-1.92-8.725-5.136-11.779Zm196.714 2.196c9.955.016 19.909 0 29.869.006-.07 5.767-.642 11.508-1.057 17.254-.556 7.856-.847 15.739-.777 23.622.038 2.703-.135 5.433.28 8.12.74 4.014 4.042 6.976 7.565 8.692 7.073 3.372 16.548.858 20.821-5.773 1.176-1.824 1.737-3.993 1.791-6.151.659-15.248 1.22-30.501 1.371-45.764 9.976-.006 19.952.005 29.928-.006.238 13.257.13 26.524.616 39.776-.092 6.544.485 13.283-1.522 19.618-2.218 7.262-7.484 13.386-13.958 17.233-9.69 5.433-20.886 8.017-31.968 7.731-7.775-.151-15.545-1.035-23.125-2.773-10.602-2.363-19.904-10.462-22.953-20.983-.82-2.908-.809-5.951-.917-8.945-.199-7.02.362-14.045 1.344-20.994 1.154-10.198 1.953-20.433 2.692-30.663Zm96.881.006h29.735c1.154 27.943 2.368 55.881 3.55 83.824-10.71.021-21.42 0-32.125.011-.334-27.949-.75-55.892-1.16-83.835ZM77.852 133.782c4.349-2.461 9.118-4.193 14.098-4.743 9.583-.529 19.37.432 28.402 3.831 5.973 2.455 12.334 3.717 18.533 5.444-.356 2.73-3.226 4.489-5.854 3.75-6.075-1.791-12.048-4.112-18.36-4.969-6.281-.972-12.658-.734-18.971-.254-6.529.54-13.133.734-19.526 2.272.35-1.835.928-3.621 1.678-5.331Zm-39.506 35.756c4.025-2.213 8.735-2.439 13.208-1.948.955 2.455 1.835 4.947 2.709 7.435 2.762 2.023 6.242 4.451 6.14 8.287.092 2.202-1.522 3.89-2.995 5.299-3.075 2.751-7.16 4.974-11.416 4.176-5.088-.486-9.62-3.89-11.687-8.536-1.743-2.994-1.473-6.609-.82-9.874.318-2.514 2.903-3.706 4.861-4.839Z"></path>
</svg>
