<svg width="675" height="238" viewBox="0 0 675 238" fill="none" xmlns="http://www.w3.org/2000/svg">
<path d="M1.88 231.064C2.03 229.244 2.11005 227.674 2.30005 226.064C2.58005 223.764 2.94005 221.474 3.30005 219.184C3.40628 217.329 3.66709 215.486 4.07996 213.674C4.86996 211.134 3.86001 208.674 4.01001 206.234C4.09001 204.734 3.90996 203.234 4.82996 201.894C5.02075 201.573 5.12422 201.208 5.13 200.834C5.17258 199.064 5.33966 197.3 5.63 195.554C6.12 192.904 6.02995 190.164 6.31995 187.474C6.62995 184.474 6.98003 181.564 7.53003 178.644C7.79003 177.314 8.42998 176.074 8.72998 174.644C9.01114 173.083 9.14509 171.5 9.13 169.914C9.2 167.774 8.97 165.594 10.13 163.614C10.2146 163.449 10.2656 163.269 10.28 163.084C10.48 160.944 10.68 158.814 10.86 156.684C10.869 156.276 10.8422 155.868 10.78 155.464C9.66003 155.224 8.59001 154.934 7.51001 154.764C6.53507 154.662 5.61008 154.282 4.8457 153.669C4.08132 153.055 3.50988 152.234 3.19995 151.304C2.89578 150.718 2.80426 150.045 2.94104 149.4C3.07782 148.754 3.43442 148.176 3.94995 147.764C5.51995 146.434 7.06995 145.064 8.56995 143.644C9.23995 143.014 9.76 142.224 10.37 141.524C10.98 140.824 11.7 140.024 12.37 139.274C12.49 139.134 12.77 139.034 12.77 138.904C12.85 137.134 14.4 136.054 14.84 134.484C15.4028 132.921 15.7592 131.29 15.9 129.634C15.9 126.414 16.9 123.404 17.35 120.284C17.78 117.364 18.35 114.444 18.8 111.524C19.26 108.791 19.7067 106.054 20.14 103.314C20.47 101.314 20.7699 99.314 21.0699 97.314C21.1306 95.8316 21.3657 94.3616 21.77 92.9341C22.36 91.5041 22.04 90.1741 22.29 88.6041C21.29 88.6041 20.47 88.4941 19.65 88.4841C17.39 88.4841 15.11 88.4841 12.85 88.4841C10.85 88.4241 10.33 87.7641 9.64001 85.7741C8.95001 83.7841 9.26002 82.064 9.15002 80.204C9.07118 79.7822 9.15672 79.3463 9.38916 78.9855C9.6216 78.6248 9.98331 78.3666 10.4 78.2641C11.76 77.8641 12.88 76.9041 14.61 77.4941C15.79 77.9041 17.32 77.2241 18.7 77.1841C19.4381 77.1717 20.1685 77.3362 20.83 77.6641C22.071 78.2692 23.4768 78.4485 24.83 78.1741C25.11 74.9141 26.38 71.8341 27.17 68.6341C27.57 67.0141 27.47 65.3341 28.74 63.9841C29.05 63.6541 28.95 62.9141 28.99 62.3641C29.06 61.3641 29.1 60.3641 29.17 58.9941C28.2302 58.7304 27.2646 58.5695 26.29 58.5141C23.02 58.6141 19.75 58.8641 16.48 59.0341C15.73 59.0341 14.97 59.0341 14.3 59.0341C13.8626 58.6764 13.523 58.2136 13.3131 57.6889C13.1032 57.1642 13.0299 56.5949 13.1 56.0341C13.1 54.6241 13.04 53.2041 13.1 51.7841C13.0901 51.0467 13.2728 50.3194 13.63 49.6741C15.05 47.6741 14.94 45.4341 14.83 43.1241C14.68 39.6341 14.77 36.1241 14.83 32.6341C14.9274 31.1161 14.4287 29.62 13.4399 28.4641C11.9732 29.4481 10.4507 30.3464 8.88 31.1541C7.19 31.9341 5.38997 32.4641 4.21997 34.5341C2.43997 31.6141 0.55 29.244 0 26.334C1.14 25.494 2.07 24.7941 3 24.1141C4.21 23.2541 5.40993 22.3641 6.67993 21.5941C9.55007 19.6862 12.5584 17.9949 15.6799 16.5341C19.0999 15.0841 22.2599 13.0041 25.5599 11.2541C28.2899 9.80409 31.02 8.33407 33.85 7.10407C34.2766 6.83828 34.7528 6.66226 35.2496 6.58661C35.7465 6.51096 36.2536 6.53733 36.74 6.66412C37.74 7.01412 39.12 5.92412 39.61 4.90412C40.142 4.01903 40.935 3.32037 41.88 2.90412C43.27 2.00412 44.82 1.36404 46.28 0.574037C46.8425 0.227868 47.4843 0.0314871 48.1442 0.00348049C48.8041 -0.0245261 49.4602 0.116862 50.05 0.414125C52.87 1.84412 56.05 2.79412 58.05 5.65412C60.2991 5.50664 62.5197 6.22184 64.26 7.65412C64.9559 8.12132 65.7561 8.40979 66.59 8.49408C69.1586 8.9772 71.5956 9.99971 73.74 11.4941C74.4041 12.007 75.1833 12.3503 76.01 12.4941C77.84 12.5841 78.26 13.994 78.89 15.204C78.9377 15.427 78.9392 15.6575 78.8945 15.881C78.8498 16.1046 78.7598 16.3166 78.63 16.5041C78.2035 17.0293 77.841 17.6033 77.55 18.2141C78.2983 17.9377 79.0238 17.6033 79.72 17.2141C81.85 15.8041 83.99 16.5741 85.83 17.5041C89.9 19.5641 93.83 21.954 97.83 24.204L98.0699 24.3641C101.59 27.1241 105.85 28.664 109.51 31.204C109.88 31.4586 110.179 31.8026 110.38 32.204C111.338 34.5524 111.662 37.1111 111.32 39.6241C111.229 40.2767 110.943 40.8867 110.5 41.3741C110.109 41.7466 109.59 41.9543 109.05 41.954C108.493 41.9248 107.953 41.7452 107.49 41.4341C104.81 39.6741 101.7 39.0341 98.75 38.0041C98.2881 37.905 97.8584 37.6918 97.5 37.3841C95.94 35.6141 93.71 35.1741 91.73 34.3841C91.49 35.3841 91.23 36.3841 91.02 37.3841C90.9153 37.7467 90.9153 38.1315 91.02 38.4941C91.96 40.9641 91.43 43.4941 91.53 46.0441C91.61 48.3941 91.53 50.7641 91.53 53.1241C91.4546 53.9461 91.2904 54.7575 91.04 55.5441C90.8 56.5441 90.12 56.8341 89.15 56.8941C87.8562 56.9892 86.5701 57.1696 85.3 57.4341C81.0569 58.1121 76.7369 58.1592 72.48 57.574C71.4188 57.6063 70.3693 57.8055 69.37 58.1641C69.67 58.9041 69.93 59.4741 70.15 60.0541C70.37 60.6341 70.63 61.0541 70.52 61.3641C69.83 63.5841 70.4 65.8441 70.73 67.9241C71.16 70.6841 70.64 73.5341 71.64 76.2241C72.05 77.3241 71.17 78.1241 70.54 78.7341C70.7 79.1441 70.72 79.3841 70.85 79.4741C72.7 80.8041 72.7 80.8041 73.37 83.4741C73.54 84.1841 73.72 84.9041 73.92 85.6141C73.9919 85.988 74.1964 86.3235 74.4958 86.5587C74.7953 86.7938 75.1697 86.913 75.55 86.8941C75.9218 86.9098 76.2891 86.9805 76.64 87.1041C78.26 87.7041 78.51 88.0341 78.52 89.7841C78.52 92.4241 78.52 95.0641 78.52 97.7841C77.5658 98.3535 76.7885 99.1767 76.2747 100.162C75.7609 101.147 75.5308 102.256 75.61 103.364C75.6971 105.969 76.0625 108.557 76.7 111.084C76.8021 111.638 76.8291 112.203 76.78 112.764C76.7531 115.464 77.0895 118.154 77.78 120.764C78.2 122.464 78.2 124.274 78.47 126.024C79.16 130.504 79.77 135.024 81.34 139.294C81.953 141.229 82.4013 143.213 82.6799 145.224C83.0348 147.224 83.5329 149.196 84.17 151.124C84.96 153.424 84.38 155.984 85.72 158.124C85.98 158.544 85.82 159.234 85.83 159.794C85.83 161.874 85.9 163.954 85.83 166.034C85.8986 168.449 86.2102 170.851 86.76 173.204C87.08 175.134 87.2499 177.074 87.5599 179.004C88.0499 182.124 88.5 185.244 88.77 188.404C89.1443 190.965 89.7194 193.493 90.49 195.964C90.89 197.574 91.34 199.184 91.77 200.784C92.12 202.094 92.12 202.094 91.5 203.844C92.6346 205.043 93.2801 206.623 93.3099 208.274C93.5299 210.274 94.3999 212.174 94.5599 214.274C94.6599 215.544 95.17 216.794 95.29 218.064C95.5 220.224 96.43 222.174 96.92 224.234C97.32 225.914 97.7399 227.724 96.3099 229.284C95.9168 229.808 95.6437 230.413 95.51 231.054C95.3575 231.788 95.0419 232.478 94.5867 233.074C94.1314 233.669 93.5482 234.155 92.88 234.494C92.15 234.844 91.65 235.654 90.99 236.184C90.3595 236.74 89.6564 237.207 88.9 237.574C88.5076 237.746 88.0703 237.787 87.6526 237.692C87.2349 237.596 86.8589 237.369 86.58 237.044C85.13 235.574 84.91 234.294 85.74 232.194C86.22 230.984 86.54 229.724 86.91 228.484C86.965 228.207 86.965 227.921 86.91 227.644C86.56 225.354 86.19 223.074 85.85 220.784C85.8148 220.408 85.8148 220.03 85.85 219.654C85.8409 214.626 85.0238 209.633 83.4299 204.864C82.721 202.898 82.1202 200.895 81.63 198.864C80.7446 195.163 80.2584 191.378 80.1799 187.574C80.2427 186.078 79.9659 184.588 79.37 183.214C78.7984 181.847 78.5125 180.376 78.53 178.894C78.5511 177.305 78.1692 175.736 77.42 174.334C77.0381 173.4 76.7565 172.428 76.58 171.434C75.9512 172.081 75.2833 172.689 74.58 173.254C73.9 173.744 73.04 173.974 72.38 174.474C71.7316 175.018 71.1417 175.628 70.62 176.294C70.13 176.854 69.78 177.534 69.25 178.044C68.12 179.144 66.99 180.224 65.91 181.374C65.2235 182.046 64.3972 182.558 63.49 182.874C62.1355 183.485 60.9986 184.493 60.23 185.764C59.75 186.434 59.23 187.304 58.59 187.604C55.93 188.744 54.59 191.054 53.11 193.284C52.5425 194.137 51.9248 194.955 51.26 195.734C50.36 196.734 48.84 197.154 48.26 198.614C48.148 198.764 48.0054 198.889 47.8417 198.981C47.678 199.072 47.4967 199.128 47.3099 199.144C45.1399 199.414 44.1699 201.084 43.3099 202.704C42.5739 204.333 41.3917 205.72 39.9 206.704C39 207.234 38.52 208.444 37.75 209.244C35.75 211.354 33.56 213.344 31.58 215.494C30.4612 216.778 29.0014 217.717 27.37 218.204C26.8653 218.279 26.3939 218.501 26.015 218.842C25.6361 219.184 25.3665 219.63 25.24 220.124C24.51 223.074 22.24 225.044 20.66 227.404C19.3 229.404 17.66 231.214 16.12 233.084C15.5789 233.74 14.9761 234.343 14.3199 234.884C13.939 235.276 13.4467 235.54 12.9099 235.642C12.3732 235.744 11.818 235.679 11.3199 235.454C10.0676 235.127 8.79481 234.883 7.51001 234.724C6.81001 234.544 5.78997 234.234 5.58997 233.724C4.96997 232.154 3.58996 231.984 2.32996 231.384C2.1734 231.287 2.02316 231.18 1.88 231.064V231.064ZM12.13 224.344C13.91 222.274 15.61 220.344 17.33 218.344C19.27 216.124 21.6499 214.344 22.8199 211.404C23.3334 210.089 24.2284 208.957 25.39 208.154C26.9729 206.996 28.346 205.575 29.45 203.954C30.2 203.024 30.7099 201.954 31.9299 201.394C32.4399 201.174 32.7299 200.394 33.0699 199.854C34.4999 197.544 35.89 195.204 38.49 193.974C38.7472 193.882 38.9657 193.706 39.11 193.474C39.46 192.534 40.11 192.344 41.11 192.204C41.8543 192.102 42.5599 191.81 43.1588 191.357C43.7577 190.903 44.23 190.303 44.53 189.614C45.1655 188.266 46.0017 187.022 47.01 185.924C50.69 182.114 54.47 178.414 58.23 174.684C58.62 174.284 59.1 173.974 59.51 173.584C62.92 170.304 67.0799 167.684 68.9399 163.004C69.0399 162.764 69.42 162.624 69.85 162.304C69.25 162.044 68.8499 161.684 68.4399 161.714C67.0391 161.701 65.6526 161.43 64.35 160.914C63.8268 160.73 63.2825 160.612 62.73 160.564C59.83 160.514 57.17 158.954 54.21 159.234C53.89 159.234 53.52 158.994 53.21 158.834C51.9283 158.134 50.4365 157.921 49.01 158.234C48.4617 158.372 47.882 158.304 47.38 158.044C45.94 157.044 44.38 157.184 42.76 157.104C41.8543 156.947 40.9591 156.733 40.08 156.464C37.76 156.044 35.43 155.034 33.08 156.054C31.3321 156.803 29.3803 156.93 27.55 156.414C25.61 155.864 24.12 156.414 22.47 156.964C22.23 156.854 21.99 156.704 21.73 156.594C19.55 155.594 18.91 156.024 18.23 158.414C17.8772 159.766 17.6924 161.157 17.6799 162.554C17.5599 165.554 17.31 168.554 17.12 171.554C17.1249 171.647 17.1249 171.741 17.12 171.834C16.3283 174.98 15.737 178.173 15.35 181.394C14.7755 185.37 14.4415 189.378 14.35 193.394C14.35 194.994 14.08 196.694 14.5 198.184C15.2421 200.612 15.1434 203.219 14.22 205.584C13.4754 207.493 13.1349 209.536 13.22 211.584C13.22 212.714 13.22 213.854 13.22 214.984C13.338 216.292 13.1284 217.608 12.61 218.814C12.1643 219.657 11.8921 220.58 11.8097 221.53C11.7272 222.48 11.8362 223.437 12.13 224.344V224.344ZM43.13 44.7741C42.24 46.6241 41.13 47.994 41.62 50.084C43.02 49.904 44.3 49.724 45.62 49.574C46.27 49.494 46.9199 49.4441 47.5699 49.4041C50.6499 49.2541 53.7799 49.744 56.8099 48.834C61.5899 49.074 66.4 48.2141 71.16 49.3441C72.1764 49.6049 73.2445 49.5842 74.25 49.2841C75.6964 48.8977 77.1954 48.7457 78.6899 48.834C79.0637 48.9002 79.4462 48.9002 79.8199 48.834C80.2899 48.614 80.9099 48.304 81.0699 47.834C81.7345 46.0809 81.9175 44.1818 81.6 42.334C81.44 41.334 81.25 40.334 81.16 39.334C81.1573 37.937 80.9962 36.5449 80.6799 35.1841C80.298 33.5423 80.0704 31.8684 80 30.1841C79.75 28.1241 79 26.4641 76.87 25.6441C75.04 24.9541 73.23 24.154 72.41 22.194C69.6403 22.407 66.8752 21.7271 64.52 20.2541C62.2 18.9241 60.0599 17.2541 57.4399 16.5441C57.2602 16.4959 57.0884 16.4217 56.9299 16.324C55.43 15.381 53.9998 14.3318 52.65 13.1841C50.6 11.1841 48.1299 11.5541 46.0699 12.3541C41.7199 14.0341 37.57 16.2341 33.38 18.3541C32.38 18.8341 31.59 19.7041 30.62 20.2641C28.3 21.5941 26.48 23.774 23.78 24.204C22.9667 25.7393 22.5962 27.4704 22.71 29.204C22.79 31.844 22.71 34.4941 22.71 37.1341C22.6857 37.8067 22.7531 38.4796 22.91 39.1341C23.2392 40.0597 23.3718 41.0437 23.2994 42.0234C23.2271 43.0031 22.9515 43.9568 22.49 44.824C22.1877 45.3596 22.0288 45.9641 22.0288 46.579C22.0288 47.194 22.1877 47.7985 22.49 48.334C23.05 49.334 24.21 48.7741 25.1 48.9141C25.65 49.0041 26.19 49.1441 26.73 49.2141C27.06 49.2801 27.3999 49.2801 27.73 49.2141C29.73 48.6941 31.83 48.134 33.96 47.564L34.96 44.194L43.13 44.7741ZM73.13 151.244C72.8392 150.459 72.6837 149.631 72.67 148.794C73.0426 146.728 72.8668 144.601 72.16 142.624C71.9223 141.663 71.5872 140.728 71.16 139.834C70.7062 138.723 70.4457 137.543 70.39 136.344C70.25 135.424 70.39 134.444 70.2 133.544C69.593 131.5 69.2568 129.385 69.2 127.254C69.1751 126.704 69.0355 126.166 68.79 125.674C67.8556 123.636 67.4268 121.403 67.54 119.164C67.6919 117.856 67.4807 116.531 66.9299 115.334C66.4647 114.209 66.2795 112.987 66.39 111.774C66.39 110.684 66.39 109.594 66.39 108.324L59.0699 114.024C57.7366 115.057 56.4033 116.091 55.0699 117.124C53.6999 118.224 52.07 119.014 51.29 120.784C51.06 121.314 50.34 121.644 49.79 121.994C48.6494 122.574 47.556 123.243 46.52 123.994C43.63 126.544 40.88 129.244 38.02 131.814C37.1013 132.612 36.0948 133.303 35.02 133.874C33.5738 134.543 32.3641 135.634 31.55 137.004C30.9554 138.175 30.1083 139.2 29.0699 140.004C27.0699 141.414 25.6 143.294 23.88 144.894C24.65 146.074 25.68 145.804 26.58 145.744C28.7299 145.641 30.8832 145.857 32.97 146.384C33.69 146.544 34.4 146.744 35.12 146.894C37.8333 147.461 40.5467 148.017 43.26 148.564C45.35 148.974 47.45 149.344 49.54 149.704C51.37 150.024 53.2 150.294 55.02 150.604C57.76 151.054 60.49 151.604 63.24 151.964C65.8 152.344 68.38 152.624 71.24 152.964L73.13 151.244ZM25.26 128.614C25.74 128.792 26.2657 128.804 26.7533 128.648C27.2409 128.492 27.6622 128.177 27.95 127.754C29.1437 126.191 30.4614 124.726 31.89 123.374C34.54 121.184 37.3999 119.234 40.1799 117.204C42.6064 115.45 44.9241 113.55 47.12 111.514C49.76 109.004 52.7199 106.834 55.4399 104.404C58.1599 101.974 60.57 99.6941 63.01 97.2141C64.25 95.9541 63.61 94.5041 61.91 94.2141C60.6394 93.9923 59.391 93.6577 58.1799 93.2141C56.7431 92.5703 55.2263 92.123 53.67 91.8841C52.3 91.7241 50.89 91.6341 49.53 91.3741C46.19 90.7341 42.87 89.9441 39.53 89.1741C37.8159 88.716 36.0433 88.5137 34.27 88.574C33.64 88.574 32.98 88.3341 32.35 88.3541C31.8262 88.3239 31.3109 88.4957 30.91 88.834C30.2946 89.6348 29.8426 90.5489 29.58 91.5241C29.23 93.1441 29.15 94.8341 28.95 96.5241C28.75 98.2141 28.58 100.034 28.3 101.774C27.8 104.874 27.21 107.954 26.7 111.054C26.6268 111.517 26.7188 111.992 26.96 112.394C27.96 113.724 27.41 115.084 26.96 116.304C26.2552 118.036 25.9708 119.911 26.13 121.774C26.2112 122.288 26.1819 122.814 26.0439 123.315C25.906 123.817 25.6625 124.284 25.33 124.684C24.01 125.974 24.3 127.234 25.28 128.614H25.26ZM62.92 82.4941C62.6872 81.847 62.5261 81.1763 62.4399 80.4941C62.2956 76.8736 61.8947 73.2678 61.24 69.704C61.13 68.884 60.82 68.0941 60.72 67.2741C60.47 65.3341 60.3199 63.384 60.0699 61.454C59.9664 60.8132 59.7816 60.1882 59.52 59.5941C59.3477 59.1684 59.0447 58.8083 58.6548 58.5657C58.2648 58.3231 57.808 58.2105 57.35 58.2441C52.25 59.0141 47.08 58.2441 41.95 58.9841C39.66 59.3341 37.77 59.6941 36.63 61.3841C36.32 63.3841 36.0299 64.9741 35.8199 66.6241C35.6244 67.3579 35.6244 68.1302 35.8199 68.8641C36.5199 70.3641 35.75 71.7441 35.67 73.1541C35.5141 74.4331 35.2052 75.6887 34.75 76.8941C34.5993 77.2509 34.5831 77.6502 34.7045 78.018C34.8258 78.3858 35.0766 78.6971 35.41 78.8941C35.9714 79.3865 36.6284 79.7576 37.34 79.9841C40.98 80.7041 44.6 81.674 48.34 81.704C52.2534 81.6267 56.1469 82.2813 59.8199 83.6341C61.3799 84.1841 62.0899 83.6741 62.9399 82.4941H62.92Z" fill="white"></path>
<path d="M270.7 186.624L267.06 184.184C265.9 179.111 264.747 174.064 263.6 169.044C263.421 168.419 263.323 167.774 263.31 167.124C263.33 165.539 263.091 163.962 262.6 162.454C262.142 160.761 261.808 159.036 261.6 157.294C261.31 154.794 261.33 152.294 260.94 149.764C260.41 146.364 260.28 142.914 259.8 139.514C259.29 135.864 258.48 132.244 257.8 128.614C257.36 126.244 256.93 123.884 256.46 121.524C255.99 119.164 255.46 116.824 254.97 114.474C254.97 114.204 254.73 113.924 254.78 113.674C255.13 111.494 254.1 109.674 253.28 107.804C252.684 106.531 252.416 105.128 252.5 103.724C252.815 100.74 252.111 97.7365 250.5 95.2041C250.318 94.8783 250.235 94.5065 250.26 94.1341C250.257 91.3451 249.873 88.5696 249.12 85.8841C249.07 85.603 249.07 85.3153 249.12 85.0342C249.62 81.2142 248.49 77.6541 247.29 74.1341C246.792 72.9248 246.742 71.5769 247.15 70.3341C247.61 69.0541 247.15 67.4841 248.55 66.3341C250.959 67.1576 253.219 68.3668 255.24 69.9142C256.36 70.8442 256.14 72.3242 256.44 73.5442C257.18 76.5442 257.26 79.7241 258.02 82.8241C258.78 85.9241 259.17 89.1841 260.37 92.2241C260.534 92.6695 260.534 93.1587 260.37 93.6041C259.947 94.6247 259.901 95.7626 260.24 96.8141C260.42 97.6541 260.05 98.7142 260.43 99.6742C260.56 100.014 260.43 100.474 260.64 100.764C261.993 103.147 262.513 105.912 262.12 108.624C261.95 110.544 263.32 111.914 263.71 113.624C263.92 114.514 264.46 115.344 264.64 116.234C264.917 117.106 264.941 118.039 264.71 118.924C263.94 120.744 264.71 122.244 265.43 123.704C265.793 124.319 266.034 124.998 266.14 125.704C266.46 128.644 266.44 131.624 267.22 134.514C267.295 134.984 267.295 135.464 267.22 135.934C267.003 137.81 267.411 139.704 268.38 141.324C268.689 141.788 268.865 142.327 268.89 142.884C268.989 147.332 269.852 151.729 271.44 155.884C271.75 153.884 271.97 152.164 272.3 150.424C272.69 148.334 273.16 146.264 273.62 144.194C274.62 139.684 276.26 135.334 276.85 130.734C276.884 130.373 277.015 130.027 277.23 129.734C278.58 128.264 278.52 126.304 279.05 124.564C279.58 122.824 279.78 121.134 280.27 119.454C280.99 117.419 281.033 115.205 280.39 113.144C280.29 112.874 280.55 112.474 280.63 112.144C281.043 109.863 281.738 107.643 282.7 105.534C283.202 104.142 283.538 102.695 283.7 101.224C283.789 100.033 284.073 98.8637 284.54 97.7641C285.104 96.9174 285.4 95.9211 285.39 94.9042C285.466 92.9522 286.056 91.0549 287.1 89.4042C288.069 87.8158 288.661 86.0267 288.83 84.1742C289.056 82.805 289.428 81.4639 289.94 80.1742C290.985 77.4874 291.573 74.6449 291.68 71.7641C291.68 70.0441 292.39 68.3441 292.76 66.6241C292.97 65.6241 293.59 65.2841 294.57 65.2441C295.737 65.1209 296.908 65.4413 297.849 66.1417C298.79 66.8421 299.433 67.8711 299.65 69.0241C300.02 70.3941 300.49 71.6641 299.65 73.0241C299.489 73.5691 299.455 74.1438 299.55 74.7041C299.463 76.9278 299.128 79.1349 298.55 81.2842C298.417 81.7347 298.366 82.2056 298.4 82.6742C298.81 85.5142 299.26 88.3442 299.71 91.1742C299.924 91.7813 300.032 92.4204 300.03 93.0641C299.39 95.9941 300.59 98.6241 301.1 101.384C301.306 103.167 301.336 104.965 301.19 106.754C301.078 107.972 301.306 109.198 301.85 110.294C302.117 110.882 302.283 111.511 302.34 112.154C302.42 112.614 302.23 113.154 302.43 113.544C303.67 115.814 303.43 118.254 303.51 120.684C303.578 121.887 303.765 123.079 304.07 124.244C305.16 128.944 304.95 133.824 306.21 138.524C306.98 141.364 307.02 144.404 307.48 147.334C307.85 149.614 308.41 151.864 308.8 154.144C309.08 155.714 310.39 156.624 311.09 158.044C311.38 157.554 311.88 157.104 311.86 156.674C311.73 154.384 312.49 152.294 313.07 150.144C313.65 147.994 313.78 145.954 314.28 143.884C314.573 142.529 315.079 141.23 315.78 140.034C316.196 139.327 316.459 138.54 316.55 137.724C316.797 136.078 317.227 134.465 317.83 132.914C319.13 129.864 319.41 126.644 319.89 123.444C319.95 123.074 319.79 122.574 319.99 122.334C321.45 120.584 321.39 118.404 321.93 116.334C322.47 114.458 322.746 112.516 322.75 110.564C322.75 107.074 322.75 103.564 322.75 100.084C322.72 99.3824 322.838 98.6823 323.097 98.0293C323.355 97.3763 323.748 96.7851 324.25 96.2942C324.757 95.7478 325.215 95.159 325.62 94.5342C325.824 94.2901 325.954 93.9929 325.995 93.6776C326.035 93.3623 325.985 93.0419 325.85 92.7541C325.737 92.5002 325.677 92.2254 325.676 91.9472C325.674 91.6691 325.731 91.3937 325.842 91.1386C325.953 90.8836 326.116 90.6545 326.321 90.466C326.525 90.2776 326.767 90.1339 327.03 90.0442C329.09 89.2342 331.21 88.5541 333.33 87.8841C333.796 87.7938 334.275 87.7938 334.74 87.8841C335.86 87.9641 336.37 88.3341 336.37 89.3941C336.37 91.3341 336.62 93.2542 335.7 95.1842C335.01 96.6442 335.01 98.4142 334.7 100.044C334.662 100.78 334.521 101.507 334.28 102.204C333.354 103.734 332.908 105.508 333 107.294C333.031 107.483 333.01 107.676 332.94 107.854C331.916 109.529 331.325 111.433 331.22 113.394C331.227 115.339 330.825 117.264 330.04 119.044C329.345 120.771 328.979 122.613 328.96 124.474C328.722 125.465 328.387 126.429 327.96 127.354C327.51 128.944 327.14 130.574 326.76 132.184C326.15 134.694 325.56 137.184 324.96 139.714C324.768 140.329 324.607 140.953 324.48 141.584C324.03 144.784 323.78 148.024 322.37 151.014C322.31 151.191 322.26 151.371 322.22 151.554C321.52 153.934 321.55 156.554 319.97 158.654C320.2 160.654 319.24 162.464 318.8 164.354C318.4 166.054 317.63 167.634 317.34 169.354C317.18 170.354 316.17 171.214 315.41 172.354C315.41 173.524 315.55 174.994 314.59 176.154C314.151 176.747 313.535 177.185 312.83 177.404C310.596 177.737 308.313 177.507 306.19 176.734C305.262 176.371 304.461 175.741 303.888 174.925C303.315 174.108 302.996 173.141 302.97 172.144C302.732 170.123 302.365 168.119 301.87 166.144C301.455 163.662 301.234 161.151 301.21 158.634C301.315 157.044 301.002 155.455 300.3 154.024C299.741 152.954 299.349 151.804 299.14 150.614C299.075 149.9 299.108 149.179 299.24 148.474C299.3 147.734 299.66 146.864 299.39 146.284C298.74 144.914 299.11 143.504 298.88 142.134C298.41 139.204 298.58 136.214 297.88 133.294C297.528 131.564 297.311 129.808 297.23 128.044C296.97 124.804 296.37 121.614 295.81 118.424C295.27 115.424 294.29 112.504 294.35 109.424C294.297 108.033 294.079 106.654 293.7 105.314C293.615 105.106 293.479 104.923 293.304 104.781C293.129 104.64 292.922 104.544 292.7 104.504C292.481 104.539 292.275 104.629 292.1 104.765C291.925 104.901 291.787 105.08 291.7 105.284C291.616 105.924 291.667 106.575 291.85 107.194C292.241 108.541 292.21 109.976 291.76 111.304C291.42 112.304 291.28 113.304 290.98 114.244C290.755 115.429 290.325 116.566 289.71 117.604C287.78 120.064 287.23 122.834 286.96 125.854C286.532 131.025 285.433 136.117 283.69 141.004C283.415 141.591 283.223 142.214 283.12 142.854C282.76 147.794 280.83 152.384 279.93 157.194C279.452 159.638 278.831 162.052 278.07 164.424C277.637 166.335 277.406 168.285 277.38 170.244C277.22 171.994 277.12 173.734 275.99 175.244C275.723 175.732 275.614 176.291 275.68 176.844C275.736 178.065 275.441 179.276 274.83 180.334C274.464 181.179 274.166 182.052 273.94 182.944C273.49 184.644 272.92 186.374 270.7 186.624Z" fill="white"></path>
<path d="M217.041 65.4141C217.257 65.7837 217.494 66.1408 217.75 66.4841C219.08 68.1141 220.27 69.7241 219.11 72.0041C218.976 72.7178 218.976 73.4505 219.11 74.1641C222.78 76.7841 224.271 81.0542 226.531 84.8042C227.651 86.7415 228.869 88.6206 230.18 90.4342C231.398 92.2755 232.433 94.2314 233.271 96.2741C234.201 98.2141 234.86 100.274 236.58 101.754C236.737 101.86 236.867 102 236.96 102.164C238.56 106.524 242.46 109.504 243.96 114.014C243.64 114.864 243.291 115.814 242.911 116.764C241.561 120.124 240.22 123.484 238.82 126.824C236.42 132.577 233.997 138.321 231.551 144.054C230.051 147.564 228.48 151.054 226.95 154.544C226.619 155.509 226.224 156.451 225.771 157.364C224.671 159.194 224.211 161.364 222.771 163.014C221.811 164.065 221.304 165.452 221.36 166.874C221.329 168.563 220.754 170.197 219.72 171.534C219.32 172.164 218.651 172.834 218.671 173.474C218.721 175.174 217.51 175.954 216.56 176.954C216.37 177.154 216.11 177.284 215.89 177.474C215.21 178.044 214.55 179.104 213.89 179.114C212.852 178.94 211.855 178.574 210.95 178.034C209.753 174.754 208.34 171.557 206.72 168.464C204.72 164.884 203.151 161.064 201.391 157.344C200.218 155.114 199.163 152.825 198.23 150.484C196.17 144.484 193.1 139.074 190.23 133.484C188.12 129.484 185.681 125.564 183.391 121.614C183.061 121.054 182.391 120.484 182.391 119.934C182.391 117.704 180.92 116.174 180.09 114.334C178.87 111.614 177.62 108.904 176.36 106.204C175.64 104.664 175.99 103.054 176.07 101.474C176.07 101.094 176.73 100.564 177.19 100.414C178.35 100.034 179.47 99.7741 180.1 98.4741C180.304 98.2207 180.557 98.0113 180.844 97.8584C181.131 97.7054 181.446 97.6121 181.771 97.5841C182.79 97.4805 183.758 97.0834 184.557 96.4409C185.356 95.7984 185.951 94.938 186.271 93.9641C186.676 92.8039 187.486 91.828 188.551 91.2141C189.301 90.8041 189.72 89.8141 190.35 89.1441C193.1 86.1441 195.811 83.144 198.661 80.314C200.571 78.384 202.731 76.6941 204.661 74.7941C206.781 72.6057 208.784 70.3057 210.661 67.9041C212.181 66.0741 214.171 64.5441 217.041 65.4141ZM211.68 159.254C212.12 158.174 212.33 157.584 212.6 157.024C213.6 154.934 214.601 152.854 215.671 150.774C215.83 150.234 216.095 149.731 216.45 149.294C217.93 148.054 218.62 146.294 219.74 144.774C220.197 144.217 220.703 143.702 221.25 143.234C222.267 142.518 222.98 141.448 223.25 140.234C223.557 138.494 224.335 136.872 225.5 135.544C225.948 134.836 226.285 134.064 226.5 133.254C227.5 130.574 228.241 127.744 230.051 125.404C230.257 124.997 230.392 124.557 230.45 124.104C230.71 123.224 230.95 122.334 231.24 121.464C231.613 120.723 231.898 119.941 232.09 119.134C232.067 118.669 232.151 118.204 232.335 117.776C232.518 117.348 232.797 116.968 233.151 116.664C233.529 116.366 233.795 115.949 233.906 115.481C234.017 115.012 233.965 114.52 233.76 114.084C233.047 112.486 232.218 110.942 231.281 109.464C230.711 108.514 229.93 107.684 229.35 106.734C228.13 104.734 227.081 102.664 225.791 100.734C224.201 98.3441 222.34 96.1241 221.72 93.2041C221.558 92.6678 221.202 92.2114 220.72 91.9242C218.15 90.4242 217.881 87.4241 216.301 85.2841C216.501 83.2841 214.83 82.4241 213.72 81.1941C213.16 81.7941 212.721 82.3641 212.161 82.8541C209.681 85.0941 207.93 88.1041 204.97 89.8541C204.801 89.9434 204.667 90.0881 204.59 90.2641C204.16 91.7441 202.821 92.1041 201.651 92.6341C200.481 93.1641 199.21 93.2941 198.97 95.0441C198.87 95.7641 197.7 96.3341 196.97 96.9741C196.24 97.6141 195.8 98.1341 195.2 98.6941C194.6 99.2541 194.261 99.5342 193.781 99.9342C192.846 100.68 191.964 101.488 191.141 102.354C190.071 103.544 190.031 105.114 189.141 106.274C189.513 106.7 189.826 107.174 190.07 107.684C191.029 110.682 192.292 113.574 193.84 116.314C194.184 117.07 194.465 117.852 194.68 118.654C194.851 119.279 195.075 119.888 195.35 120.474C196.8 123.074 198.14 125.704 198.1 128.804C198.166 129.256 198.333 129.687 198.59 130.064C199.264 131.07 199.84 132.138 200.31 133.254C201.232 135.985 202.372 138.637 203.72 141.184C203.72 141.264 203.72 141.384 203.72 141.464C204.6 143.714 205.53 145.934 206.37 148.204C207.21 150.474 207.45 152.934 209.71 154.394C209.89 154.504 209.86 154.914 209.96 155.174C210.49 156.384 210.97 157.564 211.68 159.254Z" fill="white"></path>
<path d="M549.25 81.1041C550.129 82.8155 550.523 84.7348 550.39 86.6541C549.65 97.8441 549.87 109.054 549.84 120.254C549.84 124.874 549.84 129.484 549.84 134.254C551.08 134.504 552.24 134.784 553.41 134.954C553.638 135.006 553.873 135.012 554.103 134.973C554.333 134.934 554.553 134.849 554.75 134.724C555.75 133.534 557.15 133.914 558.44 133.804C558.958 133.757 559.478 133.864 559.935 134.111C560.392 134.358 560.766 134.735 561.01 135.194C561.01 138.194 559.01 140.284 557.65 142.644C557.579 142.823 557.471 142.984 557.333 143.117C557.194 143.249 557.029 143.351 556.848 143.415C556.667 143.478 556.474 143.502 556.283 143.485C556.092 143.468 555.907 143.409 555.74 143.314C554.74 142.754 553.86 143.104 552.82 143.314C551.4 143.644 549.82 143.394 547.7 143.394L550.13 145.204C550.231 145.365 550.305 145.54 550.35 145.724C550.56 149.174 550.78 152.634 550.94 156.084C551.117 157.102 550.973 158.15 550.53 159.084C550.325 159.613 550.287 160.193 550.42 160.744C550.68 162.944 551.01 165.144 551.31 167.344C551.466 167.975 551.527 168.625 551.49 169.274C551.159 171.354 551.159 173.474 551.49 175.554C551.71 177.554 551.49 179.704 551.56 181.784C551.56 182.694 551.86 183.594 551.97 184.514C552.118 185.17 552.142 185.849 552.04 186.514C551.305 189.13 551.305 191.898 552.04 194.514C552.134 195.263 552.157 196.02 552.11 196.774C552.2 198.064 551.85 199.384 552.58 200.634C552.754 201.177 552.782 201.757 552.66 202.314C552.59 203.984 551.81 204.494 550.29 203.774C548.1 202.774 545.93 201.614 543.5 200.404C543.34 198.854 543.3 197.184 542.97 195.564C542.474 192.8 542.307 189.987 542.47 187.184C542.53 184.764 543.12 182.314 542.9 179.944C542.64 177.094 542.47 174.224 542.03 171.384C541.698 168.769 541.732 166.12 542.13 163.514C542.418 162.162 542.363 160.76 541.97 159.434C541.51 158.184 540.77 156.814 541.81 155.434C541.83 155.392 541.84 155.346 541.84 155.299C541.84 155.253 541.83 155.206 541.81 155.164C540.72 153.344 541.67 151.534 541.81 149.724C541.89 148.897 542.021 148.075 542.2 147.264C542.424 146.527 542.47 145.748 542.334 144.99C542.199 144.232 541.885 143.517 541.42 142.904C538.65 142.904 535.82 142.904 532.99 142.904C531.588 143.03 530.175 142.881 528.83 142.464C527.62 141.964 526.83 142.404 524.89 143.734C524.974 145.291 524.628 146.841 523.89 148.214C523.62 148.624 523.75 149.304 523.69 149.864C523.63 150.424 523.69 150.864 523.46 151.214C522.25 152.754 522.07 154.564 521.71 156.394C521.21 158.924 520.4 161.394 519.71 163.884C519.64 164.154 519.71 164.514 519.56 164.704C518.37 166.264 518.56 168.074 518.56 169.854C518.56 170.224 518.56 170.594 518.56 170.784C517.71 171.894 516.98 172.854 516.22 173.784C516.02 174.103 515.741 174.365 515.41 174.544C514.103 175.024 512.767 175.421 511.41 175.734C510.29 175.974 509.63 175.374 509.52 174.234C509.455 173.86 509.455 173.478 509.52 173.104C510.28 170.044 510.1 166.824 511.24 163.834C511.505 162.951 511.679 162.043 511.76 161.124C511.87 160.394 511.69 159.504 512.04 158.934C512.89 157.558 513.19 155.912 512.88 154.324C512.63 152.884 513.98 152.194 514.06 150.984C514.094 149.777 514.214 148.574 514.42 147.384C514.712 146.662 515.109 145.988 515.6 145.384C514.97 144.294 513.6 144.324 512.66 143.604C512.129 143.831 511.623 144.113 511.15 144.444C510.55 144.954 509.95 145.524 509.15 144.984C508.706 144.712 508.35 144.316 508.127 143.846C507.903 143.376 507.821 142.85 507.89 142.334C508.112 141.143 508.612 140.02 509.348 139.058C510.085 138.095 511.038 137.32 512.13 136.794C512.755 136.581 513.429 136.553 514.07 136.714C517.44 137.304 519.55 136.024 520.8 132.564C521.55 130.484 521.92 128.274 522.55 126.144C523.36 123.394 524.19 120.644 525.15 117.944C525.9 115.854 526.64 113.774 527.15 111.604C528.07 108.024 529.25 104.514 529.93 100.874C530.13 99.7841 530.4 98.7141 530.74 97.1741C532.31 95.9241 532.74 93.6341 533.31 91.3741C534.37 87.3741 535.517 83.3741 536.75 79.3741C537.53 76.9041 538.81 74.574 539.39 72.064C539.85 70.064 541.22 69.2741 542.77 68.7541C543.843 68.4766 544.902 68.1428 545.94 67.7541C546.4 67.5151 546.919 67.4135 547.435 67.4614C547.951 67.5093 548.442 67.7046 548.85 68.0241C549.307 68.3708 549.634 68.8609 549.779 69.4157C549.924 69.9706 549.879 70.5581 549.65 71.0841C549.421 71.5383 549.301 72.0402 549.301 72.5491C549.301 73.0581 549.421 73.5598 549.65 74.0141C550.256 75.1143 550.539 76.3627 550.468 77.6165C550.398 78.8704 549.975 80.079 549.25 81.1041V81.1041ZM542.02 91.3441C541.495 91.9867 541.029 92.6763 540.63 93.4041C539.873 94.9961 539.231 96.6402 538.71 98.3241C537.6 102.234 536.64 106.184 535.59 110.104C535.43 111.106 535.091 112.071 534.59 112.954C533.724 114.067 533.265 115.444 533.29 116.854C533.29 117.344 532.9 117.854 532.7 118.354C532.466 118.74 532.309 119.168 532.24 119.614C532.188 120.737 531.843 121.826 531.24 122.774C530.881 123.521 530.648 124.322 530.55 125.144C530.329 128.004 529.479 130.781 528.06 133.274C527.786 134.019 527.627 134.801 527.59 135.594C528.52 135.594 529.448 135.504 530.36 135.324C531.693 134.874 533.134 134.853 534.48 135.264C534.816 135.415 535.181 135.494 535.55 135.494C537.46 135.154 539.36 134.774 541.26 134.394C541.592 134.347 541.892 134.174 542.101 133.912C542.309 133.65 542.409 133.318 542.38 132.984C542.38 132.324 542.38 131.664 542.38 130.984C542.38 123.434 542.38 115.884 542.38 108.334C542.38 106.874 542 105.334 542.85 103.914C543 103.664 542.85 103.194 542.74 102.834C542.14 100.097 542.14 97.2616 542.74 94.5241C543.04 93.4641 543.38 92.3141 542.02 91.3441Z" fill="white"></path>
<path d="M402.89 122.334C400.4 124.874 397.48 125.514 394.46 126.334C394.343 125.082 394.084 123.848 393.69 122.654C392.92 120.984 393.36 120.214 394.88 119.304C396.059 118.423 397.377 117.747 398.78 117.304C400.13 116.984 401.15 115.694 402.14 114.564C402.427 114.198 402.637 113.779 402.759 113.331C402.881 112.883 402.912 112.415 402.85 111.954C402.779 110.367 402.954 108.778 403.37 107.244C403.823 106.344 403.902 105.302 403.59 104.344C403.35 103.774 403.96 102.764 404.36 102.044C404.794 101.27 405.043 100.405 405.086 99.5186C405.129 98.6319 404.967 97.7473 404.61 96.9342C404.01 95.3742 403.53 93.7741 404.47 92.0741C404.75 91.5641 404.54 90.7841 404.54 90.0741C404.54 86.4875 404.54 82.8976 404.54 79.3042C404.439 78.3669 404.627 77.421 405.08 76.5942C405.48 75.9942 405.97 75.2942 405.22 74.5942C405.76 72.8342 405.33 70.9041 406.22 69.1941C406.372 68.8536 406.619 68.5641 406.931 68.3601C407.243 68.1562 407.607 68.0465 407.98 68.0442C409.377 68.0283 410.755 68.3727 411.98 69.0442C414.92 70.4342 417.82 71.9142 420.74 73.3742C420.913 73.453 421.064 73.5732 421.18 73.7242C422.56 75.5242 424.62 76.0842 426.59 76.9342C430.542 78.6406 434.216 80.9292 437.49 83.7242C438.331 84.3065 439.206 84.8375 440.11 85.3141C440.88 85.8241 441.98 86.3142 442.27 86.9942C443.1 88.9942 444.71 90.3141 446.12 91.8141C447.53 93.3141 447.45 94.0642 445.77 95.3842C445.48 95.6142 445.09 95.8242 444.96 96.1342C443.84 98.6442 441.31 99.2142 439.21 100.374C438.025 100.883 436.879 101.478 435.78 102.154C433.03 104.264 430.49 106.664 427.36 108.364C428.69 112.284 430.03 116.094 431.27 119.954C432.361 123.779 433.642 127.547 435.11 131.244C436.101 133.571 436.516 136.103 436.32 138.624C437.204 139.468 437.912 140.479 438.403 141.598C438.894 142.717 439.158 143.922 439.18 145.144C439.385 146.043 439.7 146.913 440.12 147.734C441.649 151.923 443.477 155.997 445.59 159.924C446.88 162.504 447.89 165.214 449.05 167.854C449.99 169.984 450.94 172.114 451.96 174.214C452.62 175.265 452.866 176.523 452.65 177.744C449.698 177.167 446.963 175.783 444.75 173.744C443.914 173.003 443.234 172.102 442.75 171.094C442.495 170.542 442.133 170.045 441.685 169.633C441.237 169.221 440.712 168.902 440.14 168.694C439.48 168.447 438.901 168.021 438.467 167.465C438.033 166.91 437.76 166.245 437.68 165.544C436.94 161.544 435.27 157.954 433.76 154.274C433.628 153.834 433.521 153.387 433.44 152.934C432.84 150.824 432.55 148.654 431.23 146.714C430.4 145.514 430.43 143.714 430.06 142.214C429.941 141.593 429.746 140.988 429.48 140.414C427.98 137.634 426.17 134.994 426 131.674C425.953 131.109 425.721 130.575 425.34 130.154C423.72 128.374 423.59 126.154 423.21 123.944C422.878 121.94 422.403 119.961 421.79 118.024C421.359 117.004 421.063 115.931 420.91 114.834C420.84 113.424 419.52 112.974 418.51 114.034C417.289 115.322 415.66 116.148 413.9 116.374C412.41 116.614 411.55 117.884 410.9 119.094C410.509 119.938 410.297 120.854 410.28 121.784C410.04 124.944 409.97 128.124 409.67 131.284C409.537 134.439 409.203 137.582 408.67 140.694C408.563 141.724 408.536 142.76 408.59 143.794C408.51 145.184 408.87 146.614 408.12 147.944C407.97 148.396 407.945 148.88 408.05 149.344C408.22 151.06 408.22 152.788 408.05 154.504C407.94 156.199 407.94 157.899 408.05 159.594C408.05 161.394 408.05 163.184 408.05 164.974C408.05 166.764 408.05 168.374 408.05 170.074C408.05 172.734 407.89 172.834 405.28 173.844C403.57 174.504 401.94 175.384 400.28 176.184L397.85 174.964C398.09 171.724 397.4 168.384 398.33 165.044C398.518 164.021 398.545 162.975 398.41 161.944C398.442 159.248 398.777 156.565 399.41 153.944C399.801 151.552 400.031 149.137 400.1 146.714C400.19 145.044 400.02 143.324 400.71 141.714C401.4 140.104 400.99 138.564 401.28 137.034C402.03 133.114 401.28 129.034 402.74 125.174C402.897 124.236 402.947 123.283 402.89 122.334V122.334ZM414.1 79.4042C413.52 80.3142 413.1 80.9042 413.46 82.0442C413.81 83.3139 413.81 84.6546 413.46 85.9242C413.26 86.8042 412.99 87.4942 413.53 88.2942C413.588 88.4231 413.618 88.5628 413.618 88.7041C413.618 88.8455 413.588 88.9853 413.53 89.1142C412.36 92.1142 413.32 95.3842 412.59 98.5342C411.9 101.484 413.04 104.594 413.31 107.724C414.331 107.583 415.262 107.066 415.92 106.274C417.858 104.232 420.188 102.603 422.77 101.484C423.665 100.988 424.509 100.405 425.29 99.7442C425.629 99.4195 425.99 99.1187 426.37 98.8442C428.18 97.9042 430 96.9842 431.84 96.1242C433.018 95.5805 433.999 94.6864 434.65 93.5641C434.3 91.9241 433.49 90.9442 431.85 90.7842C431.193 90.7903 430.549 90.6042 429.996 90.2488C429.444 89.8935 429.007 89.3844 428.74 88.7842C428.379 88.2332 427.896 87.7716 427.33 87.4342C426.15 86.5342 424.93 85.6742 423.74 84.7742C420.716 82.6638 417.486 80.8646 414.1 79.4042V79.4042Z" fill="white"></path>
<path d="M578.84 174.284C578.348 175.029 577.661 175.625 576.853 176.006C576.045 176.387 575.148 176.539 574.26 176.444C573.268 176.452 572.3 176.142 571.496 175.561C570.692 174.981 570.095 174.158 569.79 173.214C569.28 171.834 569.01 170.374 568.58 168.744C570.58 168.084 571.03 166.524 570.77 164.584C570.29 160.894 570.33 157.164 569.77 153.474C569.38 150.792 569.18 148.085 569.17 145.374C569.07 140.564 569.1 135.744 569.17 130.924C569.256 129.917 569.399 128.915 569.6 127.924C569.747 127.285 569.771 126.623 569.67 125.974C569.027 123.349 569 120.611 569.59 117.974C570.046 115.845 569.971 113.637 569.37 111.544C569.217 110.815 569.15 110.069 569.17 109.324C568.95 106.434 569.61 103.514 568.74 100.634C568.59 100.144 569.08 99.4142 569.39 98.8542C569.7 98.2942 569.98 97.5242 569.39 97.0442C568.44 96.2242 568.76 95.1641 568.55 94.1941C568.009 91.338 567.834 88.4246 568.03 85.5242C568.1 83.3942 568.45 81.2742 568.71 79.1442C568.884 78.4295 569.015 77.7048 569.1 76.9742C569.084 75.7557 569.418 74.5583 570.061 73.5234C570.704 72.4884 571.631 71.6593 572.73 71.1342C573.591 70.6047 574.502 70.1624 575.45 69.8141C576.58 69.4541 577.77 69.2941 578.77 69.0741C581.15 70.8941 581.87 72.8641 581.17 75.5741C580.66 77.5741 580.78 79.6342 580.49 81.6642C580.2 83.6942 579.79 85.6642 579.38 87.6642C578.87 90.1942 578.3 92.7242 577.71 95.4742C578.87 96.2942 578.82 97.6842 578.85 99.1142C578.85 100.864 578.39 102.684 579.31 104.374C579.347 104.463 579.366 104.558 579.366 104.654C579.366 104.75 579.347 104.846 579.31 104.934C578.49 107.014 579.21 109.284 578.64 111.314C578.052 113.78 577.943 116.337 578.32 118.844C578.51 120.634 578.01 122.264 578.03 123.984C578.03 124.894 577.65 125.804 577.65 126.724C577.65 135.884 577.57 145.044 577.65 154.204C577.817 156.919 578.127 159.622 578.58 162.304L582.18 163.674C583.82 164.314 585.45 164.974 587.11 165.554C587.557 165.73 588.053 165.73 588.5 165.554C590.42 164.554 592.12 165.074 593.79 166.134C594.164 166.322 594.548 166.489 594.94 166.634C595.866 165.75 596.504 164.607 596.77 163.354C597.42 160.954 597.88 158.504 598.56 156.114C598.71 155.584 598.87 155.114 599.06 154.544C599.25 153.974 599.66 153.544 599.64 152.994C599.55 149.794 600.97 147.054 602.14 144.234C602.34 143.734 602.63 143.034 602.44 142.644C601.84 141.424 602.31 140.344 602.44 139.174C603.137 135.328 603.532 131.432 603.62 127.524C603.561 127.147 603.585 126.761 603.69 126.394C605.19 123.684 604.59 120.724 604.76 117.844C604.781 116.641 604.983 115.447 605.36 114.304C605.873 113.09 606.032 111.755 605.82 110.454C605.58 108.103 605.787 105.728 606.43 103.454C606.92 101.104 607.18 98.7042 607.61 96.3442C607.81 95.2542 608.21 94.2142 608.43 93.1342C608.99 90.7093 609.417 88.2557 609.71 85.7842C609.83 84.4542 609.24 83.0742 608.98 81.7242C608.84 81.2808 608.766 80.8192 608.76 80.3542C608.97 78.0442 609.19 75.7342 609.52 73.4342C609.7 72.1542 610.24 70.9242 610.35 69.6542C610.376 68.2411 610.306 66.8279 610.14 65.4242C611.379 63.5888 613.29 62.3138 615.46 61.8742C616.15 61.6237 616.818 61.3194 617.46 60.9642C617.805 60.8107 618.184 60.7479 618.56 60.7815C618.936 60.8152 619.297 60.9443 619.61 61.1565C619.922 61.3688 620.175 61.6572 620.345 61.9946C620.515 62.3319 620.596 62.7068 620.58 63.0842C620.657 64.3867 620.526 65.6932 620.19 66.9541C619.38 69.9541 618.9 73.1042 618.38 76.2142C617.86 79.3242 617.48 82.6442 617.11 85.8742C616.868 89.383 616.196 92.8489 615.11 96.1941C615.013 96.5563 614.963 96.9294 614.96 97.3042C614.76 99.8142 614.57 102.304 614.37 104.834C614.403 105.205 614.348 105.579 614.21 105.924C613.05 107.604 613.33 109.504 613.21 111.374C613.156 112.572 612.965 113.76 612.64 114.914C611.95 117.324 612.42 119.914 611.15 122.244C611.02 122.493 610.968 122.775 611 123.054C611.32 126.254 610.43 129.384 610.43 132.564C610.471 134.428 610.297 136.29 609.91 138.114C609.5 139.904 609.85 141.774 609.41 143.664C608.92 145.724 609.26 147.984 609.28 150.154C609.23 153.028 608.871 155.887 608.21 158.684C607.91 160.134 608.35 161.684 607.6 163.104C606.73 164.764 606.66 166.644 606.3 168.464C605.85 171.401 604.86 174.228 603.38 176.804C602.731 177.563 601.961 178.208 601.1 178.714C599.1 178.084 597.25 177.484 595.39 176.934C594.691 176.694 593.966 176.536 593.23 176.464C591.23 176.364 589.23 176.514 587.23 175.464C585.84 174.744 583.96 174.944 582.3 174.744L578.84 174.284Z" fill="white"></path>
<path d="M469.49 107.104C469.85 107.104 470.26 107.304 470.56 107.184C472.56 106.424 474.63 106.714 476.68 106.614C477.51 106.614 478.33 106.354 479.15 106.254C479.7 106.184 480.49 105.924 480.78 106.184C481.69 106.994 482.4 106.304 483.13 106.064C485.734 105.274 488.511 105.246 491.13 105.984C491.648 105.74 492.071 105.33 492.331 104.82C492.592 104.31 492.676 103.727 492.57 103.164C492.399 102.37 492.475 101.543 492.785 100.793C493.096 100.043 493.628 99.4048 494.31 98.9641C493.77 96.9641 493.31 94.9641 494.21 92.9641C494.301 92.4985 494.301 92.0198 494.21 91.5542C494.072 89.8611 494.116 88.158 494.34 86.4742C494.73 84.7742 494.12 83.2041 494.26 81.5841C494.48 79.0041 494.85 76.4442 495.26 73.8842C495.655 71.3024 495.865 68.6958 495.89 66.0841C495.89 64.5541 496.38 63.5242 497.8 63.0042C499.8 62.2642 501.8 61.4942 503.8 60.8742C504.068 60.8376 504.341 60.8668 504.595 60.9591C504.85 61.0515 505.078 61.2042 505.26 61.4042C505.718 61.9393 506.017 62.592 506.123 63.2884C506.229 63.9848 506.138 64.6969 505.86 65.3442C505.2 66.8742 504.66 68.4542 504.08 70.0142C503.988 70.279 503.931 70.5546 503.91 70.8341C503.7 74.3841 503.51 77.9342 503.29 81.4742C503.13 84.0842 502.89 86.6842 502.74 89.2942C502.59 91.9042 502.4 94.5442 502.47 97.1542C502.658 98.3149 502.59 99.5026 502.27 100.634C502.105 101.442 501.763 102.203 501.27 102.864C500.973 103.227 500.758 103.65 500.64 104.104C500.13 105.604 500.49 106.484 502.1 107.614C502.52 110.044 501.51 112.314 501 114.614C500.83 115.384 500.71 115.354 498.81 116.154C498.81 116.504 498.67 116.964 498.81 117.234C499.53 118.434 499.16 119.564 498.73 120.694C498.471 121.13 498.327 121.625 498.311 122.133C498.295 122.64 498.409 123.143 498.64 123.594C498.791 123.945 498.87 124.322 498.87 124.704C498.87 125.086 498.791 125.464 498.64 125.814C497.94 127.454 498.25 129.144 498.16 130.814C498.1 131.924 498.36 133.084 497.3 133.954C497.13 134.094 497.18 134.634 497.3 134.954C497.575 136.398 497.575 137.88 497.3 139.324C497.12 141.324 496.03 143.264 497.02 145.324C497.12 145.595 497.12 145.893 497.02 146.164C496.02 149.104 496.59 152.164 496.53 155.164C496.53 157.104 496.99 159.044 497.01 160.994C496.922 162.568 496.755 164.137 496.51 165.694C496.37 167.164 496.85 168.694 495.98 170.104C496.48 172.214 495.06 174.234 495.78 176.414C495.98 177.024 495.31 177.934 495.08 178.614C493.91 179.064 493.44 178.144 492.76 177.704C491.13 176.644 489.45 175.624 488.48 173.844C488.217 173.367 488.048 172.845 487.98 172.304C487.84 170.634 488.31 168.904 487.43 167.304C488.18 165.604 487.58 163.714 488.04 162.064C488.75 159.534 488.36 157.064 488.52 154.514C488.443 153.391 488.66 152.267 489.15 151.254C489.439 150.675 489.599 150.041 489.62 149.394C489.7 148.554 489.62 147.694 489.62 146.844C489.654 142.822 490.012 138.809 490.69 134.844C491.08 132.364 491.07 129.844 491.36 127.314C491.791 125.007 491.973 122.66 491.9 120.314C491.783 118.934 491.569 117.564 491.26 116.214C491.16 115.794 490.52 115.454 490.06 115.214C489.695 115.118 489.314 115.097 488.94 115.154C482.6 115.154 476.27 115.154 469.94 115.154C468.07 115.154 468.04 115.154 467.47 117.034C467.211 117.821 467.053 118.637 467 119.464C466.92 121.264 467 123.054 467 124.854C466.84 128.784 466.69 132.714 466.41 136.634C466.28 138.384 465.78 140.094 465.58 141.834C465.607 142.547 465.698 143.257 465.85 143.954C466.373 149.565 466.567 155.201 466.43 160.834C466.448 161.395 466.394 161.956 466.27 162.504C465.73 164.294 464.96 164.664 463.12 164.214C462.491 164.066 461.853 163.963 461.21 163.904C460.64 163.904 460.07 163.904 459.52 163.904C458.44 163.143 457.571 162.119 456.996 160.93C456.42 159.74 456.157 158.424 456.23 157.104C456.23 153.264 457.16 149.464 456.79 145.604C457.79 143.054 457.27 140.394 457.32 137.784C457.375 135.838 457.657 133.905 458.16 132.024C458.61 130.244 459.16 128.414 458.6 126.364C457.96 124.114 458.83 121.764 459.41 119.514C459.518 118.853 459.575 118.184 459.58 117.514H455.37L452.91 115.024C452.861 114.76 452.828 114.493 452.81 114.224C452.72 111.044 452.72 111.054 455.63 110.074C456.94 109.624 458.23 109.074 459.63 108.614C459.63 106.614 459.63 104.614 459.63 102.614C459.498 101.304 459.648 99.9813 460.07 98.7342C460.395 97.936 460.395 97.0423 460.07 96.2442C459.13 94.3042 459.81 92.5742 460.47 90.8542C460.87 89.8542 461.55 88.8542 460.82 87.7542C460.761 87.6239 460.73 87.4823 460.73 87.3391C460.73 87.196 460.761 87.0545 460.82 86.9242C461.45 85.3842 461 83.9241 460.82 82.3341C460.67 81.1441 460.88 79.9342 460.31 78.7642C460.12 78.1138 460.096 77.4263 460.24 76.7642C460.41 74.8242 460.55 72.8741 460.86 70.9541C460.967 70.2166 461.319 69.5366 461.86 69.0242C463.171 67.9822 464.581 67.0712 466.07 66.3042C468.69 64.9842 470.26 65.8741 470.35 68.8241C470.4 70.6341 470.45 72.4642 470.43 74.2842C470.332 77.9121 469.998 81.5297 469.43 85.1142C469.001 87.0537 469.094 89.0724 469.7 90.9641C469.901 91.6858 469.966 92.4389 469.89 93.1842C469.89 96.7742 469.89 100.364 469.89 103.954C469.812 105.01 469.678 106.062 469.49 107.104V107.104Z" fill="white"></path>
<path d="M642.74 176.544L640.16 173.774C639.16 174.304 639.57 175.244 639.45 176.044C639.338 176.863 639.164 177.672 638.93 178.464C638.84 178.744 638.44 179.164 638.21 179.144C637.01 179.044 636.41 179.964 635.56 180.494C634 181.494 632.3 182.234 630.64 183.074C628.98 183.914 627.1 184.684 625.44 185.684C623.52 186.824 621.74 188.184 619.88 189.424C618.6 190.274 618.49 190.244 617.12 189.074C614.79 187.074 614.65 186.234 615.64 183.564C616.198 182.099 616.558 180.565 616.71 179.004C616.99 176.004 617.92 174.764 620.71 174.094C621.169 174.029 621.615 173.891 622.03 173.684C623.872 172.536 626.067 172.092 628.21 172.434C630.473 170.144 633.336 168.539 636.47 167.804C637.25 167.624 637.87 166.804 638.64 166.634C641.44 166.024 643.64 163.634 646.64 163.824C647.02 163.824 647.45 163.414 647.81 163.134C649.449 161.909 651.295 160.987 653.26 160.414C654.806 159.793 656.252 158.947 657.55 157.904C658.425 157.202 659.453 156.716 660.55 156.484C661.539 156.178 662.491 155.766 663.39 155.254C662.76 153.734 661.33 153.194 660.83 151.804C660.068 149.933 659.148 148.129 658.08 146.414C657.471 145.377 656.804 144.375 656.08 143.414C654.63 141.364 653.08 139.414 651.73 137.264C650.64 135.548 649.767 133.704 649.13 131.774C648.17 128.96 646.909 126.258 645.37 123.714C644.59 122.354 643.56 121.194 643.98 119.494C642.98 117.324 642.76 114.804 641.31 112.794C638.91 109.464 636.9 105.854 633.85 103.004C632.942 102.074 632.113 101.071 631.37 100.004C631.171 99.6955 631.019 99.3583 630.92 99.0042C630.57 98.0542 630.23 97.0942 629.92 96.1442C629.72 95.6242 629.31 95.1441 629.32 94.6041C629.32 92.4441 628.03 90.7442 627.43 88.8042C627.265 88.3342 627.075 87.8735 626.86 87.4242C629.1 84.6042 631.76 82.7841 635.45 82.8441C636.181 82.8715 636.909 82.745 637.588 82.4728C638.267 82.2006 638.881 81.7888 639.39 81.2642C640.236 80.5472 641.24 80.0432 642.32 79.7942C645.125 78.8588 648.006 78.1695 650.93 77.7342C651.477 77.6329 652.007 77.4509 652.5 77.1941C653.934 76.516 655.479 76.106 657.06 75.9842C658.151 75.7829 659.212 75.447 660.22 74.9842C661.85 74.4542 663.39 73.5542 665.22 74.2642C665.49 74.3221 665.769 74.3253 666.041 74.2738C666.312 74.2223 666.57 74.117 666.8 73.9641C668.228 73.2167 669.863 72.9636 671.45 73.2442C671.332 75.6202 670.762 77.9519 669.77 80.1142C668.77 82.6842 666.53 83.6442 664.17 83.9042C662.403 83.9793 660.67 84.4183 659.08 85.1941C658.781 85.4107 658.441 85.5639 658.08 85.6442C653.88 85.8142 650.36 88.1742 646.48 89.3642C645.002 89.9189 643.439 90.21 641.86 90.2241C641.2 90.2241 640.54 90.2241 639.75 90.2241C639.479 91.3028 639.552 92.4394 639.96 93.4741C640.88 96.2041 642.43 98.6842 642.96 101.544C643.04 101.954 643.48 102.294 643.74 102.674C644.47 103.754 645.27 104.794 645.89 105.934C647.12 108.224 648.22 110.584 649.42 112.934C651.22 116.414 652.94 119.934 654.92 123.344C657.7 128.114 659.69 133.274 662.29 138.124C662.95 139.364 663.71 140.544 664.44 141.744C665.17 142.944 666.44 144.114 666.34 145.964C666.34 146.774 667.34 147.744 668.02 148.444C669.687 149.956 670.966 151.845 671.75 153.954C672.429 155.592 673.248 157.168 674.2 158.664C674.93 159.974 674.89 160.524 673.86 161.664C673 162.526 671.938 163.158 670.77 163.504C668.017 164.356 665.359 165.493 662.84 166.894C660.69 168.224 658.37 169.144 656.17 170.334C655.288 170.849 654.334 171.23 653.34 171.464C651.49 171.834 650.34 173.264 648.82 174.164C646.874 175.15 644.838 175.947 642.74 176.544V176.544Z" fill="white"></path>
<path d="M345.49 164.124V139.054C345.541 138.773 345.541 138.485 345.49 138.204C344.49 135.794 345.17 133.474 345.75 131.124C345.816 130.697 345.816 130.262 345.75 129.834C345.534 128.931 345.466 127.999 345.551 127.074C346.331 124.384 345.91 121.664 346.06 118.964C346.25 115.604 346.321 112.224 346.771 108.894C346.921 107.834 346.44 106.954 346.61 105.954C346.671 105.012 346.671 104.067 346.61 103.124C346.69 100.684 346.831 98.2541 346.891 95.8241C346.834 95.102 346.734 94.3842 346.59 93.6742C346.25 90.4742 346.93 87.3342 347.21 84.1642C347.41 81.8442 348.36 80.9541 350.75 80.6041C356.53 79.6743 362.218 78.2456 367.75 76.3341C371.445 75.112 375.239 74.2186 379.09 73.6642C380.18 73.5142 381.191 72.7942 382.271 72.6642C385.271 72.3542 388.271 72.2342 391.271 72.0542C391.672 72.0533 392.073 72.0834 392.47 72.1442C392.801 73.0282 392.78 74.0055 392.411 74.8742C391.817 76.1527 391.37 77.4947 391.08 78.8742C391.027 79.4913 390.737 80.0638 390.271 80.4719C389.805 80.8801 389.199 81.0922 388.58 81.0641C386.21 80.9141 384.27 82.2042 382.07 82.5042C381.81 82.5042 381.5 82.8642 381.32 82.7842C378.77 81.7842 376.411 83.4342 374.031 83.2942C371.101 83.1242 368.93 85.0442 366.24 85.2942C365.05 85.4142 363.88 85.7442 362.7 85.9142C360.324 86.1757 358.012 86.8527 355.87 87.9142C355.31 88.0644 354.729 88.1218 354.151 88.0841C354.151 88.6941 354.07 89.1541 354.09 89.6041C354.21 92.7541 354 95.9042 354.09 99.0542C354.09 102.054 353.68 105.054 353.59 107.994C353.5 110.934 353.59 113.994 353.59 117.064V117.624C353.59 120.284 353.94 120.444 356.59 119.944C359.51 119.384 362.31 118.414 365.18 117.714C367.18 117.224 369.06 116.554 370.99 115.924C372.177 115.506 373.474 115.528 374.646 115.987C375.817 116.446 376.784 117.311 377.37 118.424V122.424C375.83 122.824 374.37 123.294 372.82 123.594C371.273 123.923 369.701 124.124 368.12 124.194C364.592 124.394 361.099 125.001 357.71 126.004C355.987 126.588 354.314 127.314 352.71 128.174C352.83 129.074 352.991 129.794 353.011 130.514C353.126 132.302 353.126 134.096 353.011 135.884C352.231 142.454 352.791 149.044 352.381 155.604C352.231 158.114 351.87 160.604 351.94 163.144C351.99 165.054 352.941 165.674 354.881 165.204C355.141 165.105 355.413 165.038 355.69 165.004C359.63 165.004 363.52 164.084 367.48 164.384C368.975 164.541 370.486 164.391 371.921 163.944C374.481 163.104 377.281 163.574 379.921 162.794C380.132 162.75 380.351 162.76 380.557 162.824C380.763 162.888 380.95 163.004 381.099 163.16C381.248 163.316 381.355 163.508 381.41 163.717C381.464 163.926 381.464 164.145 381.411 164.354C380.981 166.354 380.9 168.434 379.71 170.184C379.483 170.592 379.156 170.936 378.761 171.184C377.371 171.935 375.893 172.509 374.36 172.894C371.89 173.314 369.36 173.324 366.84 173.544C365.27 173.684 363.711 173.924 362.141 174.084C360.571 174.244 359.14 173.724 357.72 174.594C357.542 174.664 357.348 174.681 357.161 174.644C353.314 174.524 349.464 174.724 345.651 175.244C344.915 175.405 344.146 175.291 343.49 174.922C342.833 174.553 342.335 173.956 342.09 173.244C341.29 171.504 340.461 169.914 341.791 168.024C342.718 166.465 343.982 165.132 345.49 164.124V164.124Z" fill="white"></path>
<path d="M148.32 187.214L146.32 184.464C148.23 181.354 147.45 178.044 147.32 174.804C147.32 174.074 147.01 173.344 147 172.614C147 167.234 146.84 161.844 147 156.464C147.191 153.879 147.627 151.317 148.3 148.814C148.651 147.955 148.651 146.993 148.3 146.134C148.1 145.744 148.22 145.204 148.09 144.764C147.77 143.594 148.9 142.604 148.24 141.254C147.75 140.254 148.12 138.854 148.11 137.624C147.935 136.124 148.214 134.605 148.91 133.264C149.164 132.567 149.276 131.826 149.24 131.084C149.47 129.084 148.72 126.944 149.72 124.974C148.88 123.534 149.54 122.314 150.23 121.064C150.37 120.718 150.37 120.331 150.23 119.984C149.796 118.953 149.631 117.829 149.75 116.716C149.869 115.604 150.268 114.54 150.91 113.624C150.286 112.332 150.19 110.847 150.64 109.484C150.869 108.97 150.952 108.403 150.88 107.844C149.88 104.134 150.52 100.364 150.37 96.6242C150.22 92.8842 150.07 89.1542 149.91 85.2542C147.67 85.0942 145.65 84.7642 143.72 85.8542C143.319 86.0886 142.865 86.216 142.4 86.2242C139.421 86.2197 136.453 86.5995 133.57 87.3542C132.546 87.595 131.468 87.4225 130.57 86.8742C129.21 86.0342 127.66 81.3542 128.51 80.1042C128.956 79.4917 129.52 78.9752 130.17 78.5853C130.819 78.1953 131.54 77.9398 132.29 77.8342C136.5 77.1342 140.61 75.7041 144.96 76.0641C147.28 76.2541 149.27 75.0642 151.44 74.6042C153.327 74.1104 155.262 73.8254 157.21 73.7542C161.118 73.7193 165.008 73.226 168.8 72.2842C171.04 71.7642 173.47 71.5941 175.61 73.0641C176.005 73.3154 176.424 73.5264 176.86 73.6941C178.86 74.4941 179.13 75.0642 178.58 76.9842C178.369 77.6982 178.109 78.3966 177.8 79.0742C177.35 80.0742 177.1 81.3942 176.31 81.9642C175.257 82.551 174.066 82.8445 172.86 82.8141C170.79 82.9341 168.7 82.8141 166.63 82.8141C164.771 82.9325 162.918 83.1461 161.08 83.4542C160.519 83.5297 160.008 83.8157 159.65 84.2542C158.945 85.381 158.336 86.5652 157.83 87.7942C157.729 88.3531 157.729 88.9254 157.83 89.4842C157.83 101.571 157.83 113.664 157.83 125.764C157.861 126.976 157.713 128.186 157.39 129.354C157 130.694 156.27 132.184 157.27 133.624C157.319 136.607 157.055 139.587 156.48 142.514C155.68 145.854 154.74 149.434 156.07 152.974C156.189 153.53 156.213 154.101 156.14 154.664C156.14 158.254 156.14 161.844 156.14 165.434C156.14 167.624 155.86 169.774 156.6 171.954C156.782 173.058 156.696 174.19 156.35 175.254C156.19 176.094 155.94 176.844 156.58 177.624C158.71 180.204 156.22 184.624 153.48 185.244C151.72 185.684 150.31 186.544 148.32 187.214Z" fill="white"></path>
</svg>
